<svg id="svg" version="1.1" xmlns="http://www.w3.org/2000/svg" xmlns:xlink="http://www.w3.org/1999/xlink" width="400" height="400" viewBox="0, 0, 400,400"><g id="svgg"><path id="path0" d="M19.600 372.522 C 18.830 372.764,17.962 373.196,17.671 373.481 C 17.381 373.767,16.886 374.000,16.571 374.000 C 16.257 374.000,16.000 374.248,16.000 374.551 C 16.000 374.854,15.730 375.326,15.400 375.600 C 15.070 375.874,14.800 376.605,14.800 377.225 C 14.800 377.845,14.620 378.464,14.400 378.600 C 14.180 378.736,14.000 379.456,14.000 380.200 C 14.000 380.944,14.180 381.664,14.400 381.800 C 14.620 381.936,14.800 382.420,14.800 382.876 C 14.800 384.142,16.359 386.400,17.233 386.400 C 17.655 386.400,18.001 386.535,18.003 386.700 C 18.017 388.002,17.766 388.000,198.856 388.000 C 317.556 388.000,377.636 387.866,377.800 387.600 C 377.936 387.380,378.316 387.200,378.643 387.200 C 379.461 387.200,382.000 384.673,382.000 383.860 C 382.000 383.497,382.180 383.200,382.400 383.200 C 383.126 383.200,382.882 377.300,382.106 376.086 C 380.885 374.175,379.416 372.926,377.989 372.585 C 375.763 372.054,21.285 371.991,19.600 372.522 " stroke="none" fill="#5c9c24" fill-rule="evenodd"></path><path id="path1" d="M53.837 13.140 C 53.722 13.326,52.159 13.593,50.365 13.731 C 48.571 13.869,46.900 14.146,46.652 14.346 C 46.403 14.546,45.435 14.836,44.500 14.990 C 43.565 15.144,42.800 15.434,42.800 15.635 C 42.800 15.836,42.512 16.000,42.160 16.000 C 41.367 16.000,38.783 17.191,38.071 17.885 C 37.781 18.168,37.286 18.400,36.971 18.400 C 36.657 18.400,36.400 18.580,36.400 18.800 C 36.400 19.020,36.124 19.200,35.787 19.200 C 35.451 19.200,35.071 19.470,34.945 19.800 C 34.818 20.130,34.504 20.400,34.246 20.400 C 32.274 20.400,22.938 31.901,21.203 36.470 C 20.758 37.641,20.230 38.889,20.030 39.241 C 19.830 39.594,19.537 40.764,19.378 41.841 C 19.219 42.919,18.899 43.922,18.667 44.072 C 18.081 44.449,18.064 60.340,18.649 60.721 C 18.884 60.874,19.197 61.900,19.344 63.000 C 19.491 64.100,19.789 65.060,20.005 65.133 C 20.222 65.207,20.401 65.657,20.402 66.133 C 20.404 66.610,20.674 67.516,21.002 68.146 C 21.331 68.776,21.600 69.541,21.600 69.846 C 21.600 70.151,21.780 70.400,22.000 70.400 C 22.220 70.400,22.400 70.676,22.400 71.013 C 22.400 71.349,22.670 71.729,23.000 71.855 C 23.330 71.982,23.600 72.399,23.600 72.782 C 23.600 73.395,23.937 73.920,25.593 75.883 C 25.817 76.149,26.000 76.477,26.000 76.612 C 26.000 77.031,33.104 84.000,33.531 84.000 C 33.752 84.000,33.993 84.135,34.067 84.300 C 34.273 84.764,36.714 86.400,37.201 86.400 C 37.439 86.400,38.031 86.772,38.517 87.227 C 39.003 87.683,39.895 88.155,40.500 88.277 C 41.105 88.400,41.600 88.655,41.600 88.845 C 41.600 89.035,42.320 89.306,43.200 89.446 C 44.080 89.587,44.800 89.850,44.800 90.031 C 44.800 90.212,45.884 90.483,47.209 90.633 C 48.534 90.783,49.714 91.062,49.833 91.253 C 50.114 91.707,64.800 91.706,64.800 91.252 C 64.800 91.060,65.880 90.781,67.200 90.632 C 68.520 90.482,69.600 90.189,69.600 89.980 C 69.600 89.771,69.978 89.600,70.440 89.600 C 71.576 89.600,76.523 87.435,77.522 86.500 C 77.817 86.225,78.232 86.000,78.445 86.000 C 78.896 86.000,79.368 85.630,81.926 83.273 L 83.800 81.545 83.800 78.777 C 83.800 73.375,76.365 71.259,72.800 75.646 C 72.690 75.781,72.195 76.019,71.700 76.173 C 71.205 76.328,70.800 76.622,70.800 76.827 C 70.800 77.032,70.530 77.200,70.200 77.200 C 69.870 77.200,69.600 77.360,69.600 77.555 C 69.600 77.751,68.983 78.027,68.229 78.168 C 67.475 78.310,66.800 78.598,66.729 78.809 C 66.658 79.020,65.475 79.310,64.100 79.453 C 62.725 79.597,61.600 79.868,61.600 80.057 C 61.600 80.508,53.711 80.504,53.433 80.053 C 53.314 79.862,52.134 79.583,50.809 79.433 C 49.484 79.283,48.400 79.012,48.400 78.831 C 48.400 78.650,47.680 78.387,46.800 78.246 C 45.920 78.106,45.200 77.834,45.200 77.642 C 45.200 77.450,44.885 77.188,44.500 77.058 C 43.840 76.837,42.953 76.313,41.691 75.400 C 40.232 74.345,34.800 68.880,34.800 68.468 C 34.800 68.211,34.623 68.000,34.408 68.000 C 34.192 68.000,33.902 67.550,33.764 67.000 C 33.626 66.450,33.353 66.000,33.157 66.000 C 32.960 66.000,32.800 65.730,32.800 65.400 C 32.800 65.070,32.628 64.800,32.418 64.800 C 32.208 64.800,31.918 64.170,31.774 63.400 C 31.629 62.630,31.362 62.000,31.180 62.000 C 30.998 62.000,30.739 61.145,30.604 60.100 C 30.469 59.055,30.188 57.887,29.980 57.505 C 29.501 56.629,29.477 47.723,29.953 47.429 C 30.148 47.309,30.430 46.218,30.582 45.005 C 30.734 43.792,31.005 42.800,31.185 42.800 C 31.366 42.800,31.624 42.358,31.760 41.818 C 32.428 39.153,40.113 29.600,41.588 29.600 C 41.783 29.600,42.181 29.374,42.471 29.097 C 42.762 28.821,43.763 28.236,44.695 27.797 C 45.628 27.359,46.393 26.885,46.395 26.745 C 46.398 26.604,47.075 26.362,47.899 26.208 C 48.724 26.053,49.527 25.718,49.684 25.463 C 50.081 24.822,64.309 24.811,64.715 25.451 C 64.872 25.699,65.765 26.030,66.700 26.186 C 67.635 26.342,68.402 26.589,68.405 26.735 C 68.407 26.881,69.172 27.355,70.105 27.790 C 71.037 28.224,72.790 29.300,74.000 30.181 C 76.341 31.885,81.068 32.590,81.499 31.300 C 81.591 31.025,81.901 30.800,82.187 30.800 C 82.474 30.800,83.017 30.328,83.395 29.751 C 84.708 27.747,83.815 21.600,82.211 21.600 C 82.076 21.600,81.526 21.193,80.990 20.696 C 80.453 20.198,79.156 19.343,78.107 18.796 C 77.058 18.248,76.110 17.708,76.000 17.596 C 75.775 17.367,73.736 16.376,71.540 15.430 C 70.736 15.083,69.737 14.800,69.320 14.800 C 68.902 14.800,68.384 14.624,68.169 14.409 C 67.954 14.194,66.208 13.898,64.289 13.750 C 62.370 13.603,60.800 13.329,60.800 13.141 C 60.800 12.696,54.112 12.695,53.837 13.140 M211.349 21.315 C 211.101 21.582,210.561 22.102,210.149 22.472 C 209.737 22.841,209.175 23.419,208.900 23.755 C 208.295 24.495,208.206 30.400,208.800 30.400 C 209.020 30.400,209.200 30.630,209.200 30.911 C 209.200 31.469,210.589 32.800,211.171 32.800 C 211.370 32.800,211.601 33.004,211.684 33.253 C 212.491 35.673,220.800 32.472,220.800 29.742 C 220.800 29.224,220.980 28.800,221.200 28.800 C 221.690 28.800,221.737 26.132,221.252 25.832 C 221.060 25.714,220.796 25.079,220.664 24.421 C 220.418 23.189,219.573 22.172,218.072 21.300 C 216.965 20.657,211.950 20.669,211.349 21.315 M111.600 36.780 C 111.600 37.011,111.060 37.200,110.400 37.200 C 109.740 37.200,109.200 37.357,109.200 37.549 C 109.200 37.741,108.480 38.013,107.600 38.154 C 106.720 38.294,106.000 38.587,106.000 38.805 C 106.000 39.022,105.653 39.200,105.229 39.200 C 104.804 39.200,104.211 39.446,103.910 39.747 C 103.609 40.048,102.966 40.420,102.481 40.574 C 101.997 40.728,101.600 41.022,101.600 41.227 C 101.600 41.432,101.417 41.600,101.193 41.600 C 100.582 41.600,95.200 46.901,95.200 47.503 C 95.200 47.790,94.930 48.129,94.600 48.255 C 94.270 48.382,94.000 48.723,94.000 49.014 C 94.000 49.305,93.775 49.789,93.500 50.090 C 92.668 50.999,91.600 53.216,91.600 54.032 C 91.600 54.455,91.441 54.800,91.247 54.800 C 91.053 54.800,90.677 56.195,90.411 57.900 C 89.738 62.225,89.462 67.600,89.914 67.600 C 90.118 67.600,90.400 68.635,90.540 69.900 C 90.831 72.533,91.599 74.910,92.787 76.853 C 93.240 77.594,93.720 78.515,93.852 78.900 C 93.985 79.285,94.240 79.600,94.420 79.600 C 94.599 79.600,94.858 79.953,94.995 80.385 C 95.303 81.356,100.296 86.400,100.949 86.400 C 101.210 86.400,101.683 86.760,102.000 87.200 C 102.317 87.640,102.785 88.000,103.039 88.000 C 103.294 88.000,103.722 88.265,103.991 88.589 C 104.260 88.914,105.092 89.294,105.840 89.434 C 106.588 89.574,107.200 89.832,107.200 90.007 C 107.200 90.182,108.100 90.449,109.200 90.600 C 110.300 90.751,111.200 91.038,111.200 91.238 C 111.200 91.439,114.042 91.600,117.600 91.600 C 121.120 91.600,124.000 91.444,124.000 91.254 C 124.000 91.064,124.773 90.803,125.718 90.673 C 126.663 90.544,127.968 90.160,128.618 89.821 C 129.268 89.482,130.025 89.204,130.300 89.202 C 130.575 89.201,130.800 89.040,130.800 88.843 C 130.800 88.647,131.250 88.374,131.800 88.236 C 132.350 88.098,132.800 87.808,132.800 87.592 C 132.800 87.377,132.982 87.200,133.205 87.200 C 133.611 87.200,136.323 84.859,137.548 83.451 C 137.907 83.040,138.785 82.122,139.500 81.411 C 140.215 80.701,140.800 79.912,140.800 79.660 C 140.800 79.407,140.980 79.200,141.200 79.200 C 141.420 79.200,141.600 78.943,141.600 78.629 C 141.600 78.314,141.834 77.819,142.121 77.529 C 142.787 76.853,144.000 73.816,144.000 72.825 C 144.000 72.408,144.225 71.992,144.500 71.900 C 145.170 71.677,145.219 57.197,144.552 56.361 C 144.306 56.053,143.983 55.125,143.834 54.300 C 143.685 53.475,143.392 52.800,143.182 52.800 C 142.972 52.800,142.800 52.440,142.800 52.000 C 142.800 51.560,142.623 51.200,142.408 51.200 C 142.192 51.200,141.902 50.750,141.764 50.200 C 141.626 49.650,141.353 49.200,141.157 49.200 C 140.960 49.200,140.800 48.927,140.800 48.593 C 140.800 47.151,131.713 39.200,130.065 39.200 C 129.809 39.200,129.600 39.036,129.600 38.835 C 129.600 38.634,128.880 38.349,128.000 38.200 C 127.120 38.051,126.400 37.785,126.400 37.609 C 126.400 37.053,123.599 36.715,117.500 36.535 C 113.535 36.417,111.600 36.498,111.600 36.780 M173.600 36.800 C 173.600 37.020,172.970 37.200,172.200 37.200 C 171.430 37.200,170.800 37.360,170.800 37.555 C 170.800 37.751,170.170 38.029,169.400 38.174 C 168.630 38.318,168.000 38.594,168.000 38.786 C 168.000 38.979,167.425 39.263,166.723 39.417 C 166.020 39.571,165.230 39.901,164.967 40.149 C 164.704 40.397,163.985 40.960,163.370 41.400 C 161.561 42.693,159.811 44.174,159.652 44.545 C 159.570 44.735,159.165 45.180,158.752 45.534 C 158.338 45.888,158.000 46.316,158.000 46.486 C 158.000 46.771,156.882 48.200,155.700 49.425 C 155.425 49.710,155.194 50.091,155.186 50.271 C 155.179 50.452,154.825 51.320,154.400 52.200 C 153.975 53.080,153.621 54.115,153.614 54.500 C 153.606 54.885,153.420 55.200,153.200 55.200 C 152.980 55.200,152.800 55.819,152.800 56.576 C 152.800 57.333,152.625 58.061,152.411 58.193 C 151.625 58.679,152.381 72.800,153.193 72.800 C 153.360 72.800,153.613 73.520,153.754 74.400 C 153.894 75.280,154.173 76.000,154.373 76.000 C 154.573 76.000,154.855 76.540,155.000 77.200 C 155.145 77.860,155.429 78.400,155.632 78.400 C 155.834 78.400,156.000 78.657,156.000 78.971 C 156.000 79.285,156.450 79.896,157.000 80.329 C 157.550 80.761,158.000 81.321,158.000 81.573 C 158.000 82.088,161.851 86.000,162.358 86.000 C 162.537 86.000,163.168 86.449,163.761 86.999 C 164.798 87.960,167.941 89.600,168.745 89.600 C 168.958 89.600,169.194 89.783,169.269 90.007 C 169.344 90.231,170.349 90.526,171.502 90.663 C 172.656 90.800,173.600 91.066,173.600 91.256 C 173.600 91.445,176.390 91.600,179.800 91.600 C 183.210 91.600,186.000 91.441,186.000 91.246 C 186.000 91.051,186.990 90.768,188.200 90.617 C 189.410 90.466,190.400 90.190,190.400 90.003 C 190.400 89.816,190.940 89.545,191.600 89.400 C 192.260 89.255,192.800 88.990,192.800 88.812 C 192.800 88.633,193.205 88.382,193.700 88.254 C 194.195 88.126,195.308 87.386,196.173 86.611 C 197.038 85.835,197.893 85.200,198.073 85.200 C 198.253 85.200,198.400 84.945,198.400 84.633 C 198.400 84.322,198.607 83.998,198.860 83.913 C 200.571 83.343,199.267 76.633,197.352 76.152 C 196.829 76.021,196.400 75.753,196.400 75.557 C 196.400 75.360,195.320 75.200,194.000 75.200 C 192.667 75.200,191.600 75.378,191.600 75.600 C 191.600 75.820,191.349 76.000,191.042 76.000 C 190.736 76.000,189.907 76.540,189.200 77.200 C 188.493 77.860,187.664 78.400,187.358 78.400 C 187.051 78.400,186.800 78.564,186.800 78.765 C 186.800 78.966,186.080 79.251,185.200 79.400 C 184.320 79.549,183.600 79.834,183.600 80.035 C 183.600 80.236,181.890 80.400,179.800 80.400 C 177.710 80.400,176.000 80.243,176.000 80.051 C 176.000 79.859,175.280 79.587,174.400 79.446 C 173.520 79.306,172.800 79.032,172.800 78.839 C 172.800 78.645,172.335 78.370,171.767 78.227 C 170.666 77.951,166.000 73.597,166.000 72.847 C 166.000 72.601,165.840 72.400,165.645 72.400 C 165.449 72.400,165.173 71.783,165.032 71.029 C 164.890 70.275,164.555 69.585,164.287 69.495 C 163.614 69.271,163.596 58.896,164.268 58.481 C 164.526 58.322,164.860 57.699,165.012 57.096 C 165.163 56.493,165.447 56.000,165.643 56.000 C 165.840 56.000,166.000 55.754,166.000 55.452 C 166.000 54.727,170.311 50.400,171.035 50.400 C 171.346 50.400,171.600 50.240,171.600 50.043 C 171.600 49.847,172.093 49.563,172.696 49.412 C 173.299 49.260,173.922 48.926,174.081 48.668 C 174.475 48.031,184.710 48.014,185.114 48.650 C 185.271 48.897,185.970 49.223,186.667 49.374 C 187.363 49.525,188.033 49.908,188.154 50.224 C 188.276 50.541,188.651 50.800,188.987 50.800 C 189.324 50.800,189.601 50.935,189.603 51.100 C 189.619 53.052,196.256 53.405,198.109 51.553 C 200.149 49.513,199.976 42.800,197.883 42.800 C 197.668 42.800,197.094 42.371,196.608 41.847 C 196.122 41.323,195.337 40.770,194.862 40.620 C 194.388 40.469,194.000 40.193,194.000 40.005 C 194.000 39.817,193.460 39.545,192.800 39.400 C 192.140 39.255,191.600 38.973,191.600 38.773 C 191.600 38.573,190.880 38.294,190.000 38.154 C 189.120 38.013,188.400 37.741,188.400 37.549 C 188.400 37.357,187.871 37.200,187.224 37.200 C 186.577 37.200,185.936 37.020,185.800 36.800 C 185.653 36.562,183.129 36.400,179.576 36.400 C 175.859 36.400,173.600 36.551,173.600 36.800 M211.110 37.515 C 209.077 38.995,209.150 37.898,209.283 65.075 L 209.400 89.150 210.772 90.375 C 211.998 91.469,212.415 91.600,214.689 91.600 C 217.377 91.600,218.009 91.288,219.900 89.031 C 220.288 88.567,220.400 82.968,220.400 64.032 L 220.400 39.631 218.768 38.015 C 216.642 35.910,213.588 35.710,211.110 37.515 M231.846 37.393 C 229.522 39.392,229.600 38.448,229.600 64.446 C 229.600 78.207,229.752 88.400,229.957 88.400 C 230.153 88.400,230.423 88.838,230.558 89.373 C 230.692 89.909,231.161 90.461,231.601 90.600 C 232.040 90.740,232.400 91.022,232.400 91.227 C 232.400 92.337,238.055 91.606,239.331 90.331 L 240.600 89.062 240.702 74.831 C 240.758 67.004,240.969 60.240,241.171 59.800 C 241.373 59.360,241.652 58.477,241.792 57.839 C 242.102 56.423,243.817 53.885,245.737 52.000 C 247.749 50.026,248.136 49.737,249.231 49.395 C 249.764 49.228,250.328 48.891,250.485 48.646 C 251.365 47.269,262.800 48.597,262.800 50.077 C 262.800 50.255,263.050 50.400,263.357 50.400 C 264.112 50.400,267.883 54.199,268.230 55.309 C 268.383 55.799,268.668 56.304,268.864 56.430 C 269.061 56.557,269.331 57.592,269.466 58.730 C 269.601 59.869,269.866 60.800,270.056 60.800 C 270.245 60.800,270.400 67.085,270.400 74.766 L 270.400 88.731 271.793 90.166 C 273.177 91.591,278.800 92.442,278.800 91.227 C 278.800 91.022,279.160 90.740,279.599 90.600 C 280.039 90.461,280.508 89.909,280.642 89.373 C 280.777 88.838,281.047 88.400,281.243 88.400 C 281.446 88.400,281.600 81.917,281.600 73.400 C 281.600 65.150,281.445 58.400,281.256 58.400 C 281.067 58.400,280.807 57.382,280.678 56.137 C 280.550 54.893,280.281 53.768,280.080 53.637 C 279.880 53.507,279.591 52.725,279.440 51.900 C 279.288 51.075,279.011 50.400,278.825 50.400 C 278.639 50.400,278.374 49.950,278.236 49.400 C 278.098 48.850,277.808 48.400,277.592 48.400 C 277.377 48.400,277.200 48.207,277.200 47.971 C 277.200 47.736,276.975 47.308,276.700 47.020 C 276.425 46.733,275.930 46.094,275.600 45.600 C 274.775 44.365,274.170 43.766,272.465 42.496 C 271.659 41.896,270.856 41.179,270.680 40.902 C 270.504 40.626,270.099 40.400,269.780 40.400 C 269.461 40.400,269.200 40.228,269.200 40.018 C 269.200 39.808,268.570 39.518,267.800 39.374 C 267.030 39.229,266.400 38.959,266.400 38.774 C 266.400 38.588,265.770 38.318,265.000 38.174 C 264.230 38.029,263.600 37.771,263.600 37.601 C 263.600 36.729,250.685 35.955,249.862 36.778 C 249.630 37.010,248.936 37.200,248.320 37.200 C 247.704 37.200,247.200 37.357,247.200 37.549 C 247.200 37.741,246.480 38.013,245.600 38.154 C 244.720 38.294,244.000 38.548,244.000 38.717 C 244.000 38.886,243.415 39.275,242.700 39.581 C 241.985 39.888,241.280 40.207,241.134 40.291 C 240.988 40.375,240.745 40.056,240.594 39.583 C 239.622 36.517,234.388 35.207,231.846 37.393 M309.400 36.800 C 309.264 37.020,308.623 37.200,307.976 37.200 C 307.329 37.200,306.800 37.360,306.800 37.555 C 306.800 37.751,306.125 38.038,305.301 38.192 C 304.476 38.347,303.711 38.592,303.601 38.737 C 303.490 38.882,302.519 39.450,301.443 40.000 C 298.591 41.457,291.600 48.529,291.600 49.958 C 291.600 50.201,291.440 50.400,291.243 50.400 C 291.047 50.400,290.763 50.893,290.612 51.496 C 290.460 52.099,290.164 52.698,289.954 52.828 C 289.744 52.958,289.460 53.770,289.324 54.632 C 289.188 55.495,288.879 56.328,288.638 56.485 C 288.028 56.883,288.036 70.872,288.648 71.639 C 288.894 71.947,289.217 72.875,289.366 73.700 C 289.515 74.525,289.808 75.200,290.018 75.200 C 290.228 75.200,290.400 75.390,290.400 75.622 C 290.400 76.402,292.016 79.600,292.410 79.600 C 292.624 79.600,292.800 79.794,292.800 80.031 C 292.800 80.843,299.162 87.200,299.974 87.200 C 300.209 87.200,300.400 87.377,300.400 87.592 C 300.400 87.808,300.850 88.098,301.400 88.236 C 301.950 88.374,302.400 88.647,302.400 88.843 C 302.400 89.040,302.625 89.201,302.900 89.202 C 303.175 89.204,303.932 89.482,304.582 89.821 C 305.232 90.160,306.537 90.544,307.482 90.673 C 308.427 90.803,309.200 91.064,309.200 91.254 C 309.200 91.717,321.491 91.700,321.777 91.237 C 321.900 91.038,322.901 90.751,324.000 90.600 C 325.100 90.449,326.000 90.176,326.000 89.994 C 326.000 89.812,326.540 89.545,327.200 89.400 C 327.860 89.255,328.400 88.990,328.400 88.812 C 328.400 88.633,328.809 88.384,329.308 88.259 C 329.807 88.134,330.617 87.657,331.108 87.200 L 332.000 86.369 332.000 87.384 C 332.000 92.474,341.159 93.138,343.138 88.191 C 344.097 85.795,343.419 57.895,342.370 56.580 C 342.186 56.349,341.914 55.404,341.766 54.480 C 341.619 53.556,341.355 52.800,341.181 52.800 C 341.006 52.800,340.745 52.260,340.600 51.600 C 340.455 50.940,340.171 50.400,339.968 50.400 C 339.766 50.400,339.600 50.167,339.600 49.881 C 339.600 48.862,333.004 41.600,332.078 41.600 C 331.815 41.600,331.600 41.423,331.600 41.208 C 331.600 40.992,331.150 40.702,330.600 40.564 C 330.050 40.426,329.600 40.187,329.600 40.032 C 329.600 39.630,325.747 38.000,324.796 38.000 C 324.358 38.000,324.000 37.820,324.000 37.600 C 324.000 37.380,323.460 37.200,322.800 37.200 C 322.140 37.200,321.600 37.020,321.600 36.800 C 321.600 36.551,319.341 36.400,315.624 36.400 C 312.071 36.400,309.547 36.562,309.400 36.800 M122.870 48.710 C 123.139 48.979,123.626 49.200,123.951 49.200 C 125.312 49.200,130.356 53.181,130.387 54.280 C 130.394 54.544,130.625 54.904,130.900 55.080 C 131.509 55.470,132.800 57.861,132.800 58.599 C 132.800 58.893,133.025 59.208,133.300 59.300 C 133.923 59.508,134.016 68.675,133.400 69.115 C 133.179 69.272,132.588 70.210,132.085 71.200 C 130.733 73.860,130.322 74.454,129.000 75.658 C 126.588 77.855,125.867 78.400,125.372 78.400 C 125.094 78.400,124.803 78.592,124.725 78.826 C 124.647 79.060,123.822 79.354,122.891 79.478 C 121.961 79.603,121.200 79.862,121.200 80.053 C 121.200 80.540,114.102 80.489,113.800 80.000 C 113.664 79.780,113.268 79.600,112.920 79.600 C 110.833 79.600,104.513 74.645,103.822 72.468 C 103.670 71.991,103.378 71.600,103.173 71.600 C 102.968 71.600,102.800 71.345,102.800 71.033 C 102.800 70.722,102.617 70.406,102.394 70.331 C 102.171 70.257,101.875 68.982,101.736 67.498 C 101.598 66.014,101.330 64.800,101.142 64.800 C 100.954 64.800,100.800 64.440,100.800 64.000 C 100.800 63.560,100.955 63.200,101.144 63.200 C 101.334 63.200,101.590 62.079,101.715 60.710 C 101.839 59.340,102.134 58.155,102.370 58.077 C 102.607 57.998,102.800 57.608,102.800 57.209 C 102.800 56.811,103.070 56.382,103.400 56.255 C 103.730 56.129,104.000 55.832,104.000 55.596 C 104.000 54.776,108.290 50.400,109.093 50.400 C 109.372 50.400,109.600 50.234,109.600 50.032 C 109.600 49.829,110.140 49.545,110.800 49.400 C 111.460 49.255,112.000 48.983,112.000 48.795 C 112.000 47.929,122.011 47.851,122.870 48.710 M321.138 48.700 C 321.286 48.940,321.901 49.260,322.504 49.412 C 323.107 49.563,323.600 49.847,323.600 50.043 C 323.600 50.240,323.810 50.400,324.066 50.400 C 324.323 50.400,324.818 50.658,325.166 50.974 C 326.906 52.551,328.259 53.972,328.800 54.790 C 329.130 55.290,329.603 55.911,329.851 56.172 C 330.099 56.432,330.437 57.265,330.601 58.023 C 330.766 58.780,331.085 59.517,331.311 59.661 C 332.542 60.444,331.240 71.600,329.917 71.600 C 329.743 71.600,329.600 71.838,329.600 72.128 C 329.600 72.418,329.060 73.261,328.400 74.000 C 327.740 74.739,327.200 75.492,327.200 75.672 C 327.200 75.852,326.943 76.000,326.629 76.000 C 326.315 76.000,325.727 76.405,325.322 76.900 C 324.519 77.883,322.432 79.025,320.696 79.431 C 320.089 79.572,319.494 79.849,319.373 80.044 C 319.086 80.508,312.000 80.509,312.000 80.045 C 312.000 79.850,311.190 79.569,310.200 79.421 C 309.210 79.272,308.400 78.982,308.400 78.775 C 308.400 78.569,308.158 78.400,307.861 78.400 C 307.565 78.400,306.890 78.029,306.361 77.576 C 303.483 75.107,302.800 74.428,302.800 74.034 C 302.800 73.795,302.623 73.600,302.408 73.600 C 302.192 73.600,301.902 73.150,301.764 72.600 C 301.626 72.050,301.372 71.600,301.200 71.600 C 301.028 71.600,300.763 71.107,300.612 70.504 C 300.460 69.901,300.137 69.285,299.894 69.134 C 299.286 68.759,299.251 59.666,299.855 59.282 C 300.100 59.127,300.426 58.415,300.582 57.700 C 300.737 56.985,301.029 56.400,301.232 56.400 C 301.434 56.400,301.600 56.124,301.600 55.787 C 301.600 55.451,301.870 55.071,302.200 54.945 C 302.530 54.818,302.806 54.509,302.813 54.257 C 302.845 53.162,307.867 49.200,309.223 49.200 C 309.563 49.200,310.011 49.037,310.220 48.839 C 311.170 47.935,320.591 47.815,321.138 48.700 M54.600 132.379 C 54.160 132.579,52.765 132.756,51.500 132.772 C 50.235 132.787,49.200 132.959,49.200 133.154 C 49.200 133.349,48.204 133.632,46.987 133.784 C 45.770 133.936,44.285 134.316,43.687 134.628 C 43.089 134.940,42.402 135.196,42.160 135.198 C 39.460 135.213,28.580 143.925,25.176 148.797 C 21.753 153.695,19.200 159.494,19.200 162.368 C 19.200 163.009,18.981 163.606,18.714 163.695 C 18.062 163.913,18.020 179.254,18.669 180.056 C 18.912 180.355,19.237 181.545,19.393 182.700 C 19.548 183.855,19.816 184.800,19.988 184.800 C 20.159 184.800,20.409 185.344,20.542 186.008 C 20.834 187.469,22.813 191.600,23.222 191.600 C 23.382 191.600,23.618 192.019,23.747 192.531 C 23.876 193.043,24.435 193.953,24.990 194.552 C 25.546 195.151,26.000 195.768,26.000 195.922 C 26.000 196.304,31.188 201.557,32.793 202.800 C 33.503 203.350,34.322 204.025,34.613 204.300 C 34.905 204.575,35.323 204.800,35.543 204.800 C 35.763 204.800,36.189 205.025,36.490 205.300 C 37.075 205.835,39.047 206.966,41.000 207.886 C 41.660 208.197,42.493 208.608,42.851 208.798 C 43.209 208.989,44.199 209.271,45.051 209.425 C 45.903 209.579,46.853 209.906,47.162 210.152 C 47.980 210.804,66.870 210.773,67.659 210.118 C 67.978 209.852,68.996 209.514,69.920 209.366 C 70.844 209.219,71.600 208.941,71.600 208.749 C 71.600 208.557,71.864 208.400,72.186 208.400 C 72.809 208.400,75.663 207.168,76.000 206.754 C 76.110 206.619,76.605 206.381,77.100 206.227 C 77.595 206.072,78.000 205.778,78.000 205.573 C 78.000 205.368,78.187 205.200,78.416 205.200 C 78.957 205.200,81.065 203.705,82.561 202.260 C 84.836 200.063,84.283 194.388,81.732 193.747 C 81.219 193.619,80.800 193.353,80.800 193.157 C 80.800 192.497,75.313 192.730,75.055 193.400 C 74.929 193.730,74.549 194.000,74.213 194.000 C 73.876 194.000,73.600 194.168,73.600 194.373 C 73.600 194.578,73.203 194.872,72.719 195.026 C 72.234 195.180,71.591 195.552,71.290 195.853 C 70.989 196.154,70.486 196.400,70.171 196.400 C 69.857 196.400,69.600 196.536,69.600 196.702 C 69.600 197.063,67.873 197.843,66.200 198.239 C 65.540 198.395,64.872 198.720,64.715 198.962 C 64.308 199.587,50.874 199.566,50.486 198.939 C 50.328 198.686,49.345 198.350,48.300 198.194 C 47.255 198.037,46.400 197.750,46.400 197.555 C 46.400 197.360,46.130 197.200,45.800 197.200 C 45.470 197.200,45.200 197.020,45.200 196.800 C 45.200 196.580,44.977 196.400,44.703 196.400 C 43.179 196.400,34.800 189.101,34.800 187.773 C 34.800 187.458,34.649 187.200,34.464 187.200 C 34.280 187.200,33.785 186.482,33.364 185.605 C 32.944 184.727,32.465 184.007,32.300 184.005 C 32.135 184.002,31.999 183.775,31.998 183.500 C 31.996 183.225,31.713 182.460,31.368 181.800 C 31.023 181.140,30.639 179.745,30.515 178.700 C 30.390 177.655,30.134 176.800,29.944 176.800 C 29.492 176.800,29.495 167.312,29.947 167.033 C 30.138 166.914,30.417 165.734,30.567 164.409 C 30.717 163.084,30.996 162.000,31.188 162.000 C 31.380 162.000,31.655 161.460,31.800 160.800 C 31.945 160.140,32.184 159.598,32.332 159.595 C 32.479 159.593,32.944 158.873,33.364 157.995 C 33.785 157.118,34.280 156.400,34.464 156.400 C 34.649 156.400,34.800 156.170,34.800 155.889 C 34.800 155.608,35.115 155.098,35.500 154.756 C 35.885 154.414,36.671 153.609,37.248 152.967 C 38.939 151.083,41.097 149.200,41.566 149.200 C 41.804 149.200,42.000 149.049,42.000 148.864 C 42.000 148.680,42.718 148.185,43.595 147.764 C 44.473 147.344,45.193 146.865,45.195 146.700 C 45.198 146.535,45.425 146.399,45.700 146.398 C 45.975 146.396,46.732 146.118,47.382 145.779 C 48.032 145.440,49.342 145.056,50.293 144.925 C 51.244 144.795,52.118 144.533,52.235 144.344 C 52.514 143.892,62.400 143.896,62.400 144.348 C 62.400 144.540,63.288 144.815,64.374 144.959 C 65.460 145.103,66.855 145.485,67.474 145.808 C 68.093 146.131,68.825 146.396,69.100 146.398 C 69.375 146.399,69.600 146.536,69.600 146.702 C 69.600 146.869,70.119 147.235,70.754 147.515 C 71.389 147.796,72.316 148.380,72.815 148.813 C 73.314 149.246,73.946 149.600,74.218 149.600 C 74.491 149.600,74.818 149.870,74.945 150.200 C 75.071 150.530,75.631 150.800,76.187 150.800 C 76.744 150.800,77.200 150.980,77.200 151.200 C 77.200 151.703,79.872 151.731,80.181 151.231 C 80.306 151.028,80.912 150.751,81.527 150.616 C 84.034 150.065,85.125 143.807,83.050 141.882 C 80.725 139.724,80.059 139.200,79.644 139.200 C 79.400 139.200,79.200 139.032,79.200 138.827 C 79.200 138.622,78.795 138.328,78.300 138.173 C 77.805 138.019,77.310 137.768,77.200 137.617 C 76.860 137.149,71.774 134.800,71.102 134.800 C 70.752 134.800,70.407 134.622,70.333 134.404 C 70.260 134.186,69.075 133.890,67.700 133.747 C 66.325 133.603,65.200 133.353,65.200 133.190 C 65.200 132.913,63.734 132.720,57.800 132.217 C 56.480 132.105,55.040 132.178,54.600 132.379 M308.600 132.539 C 307.940 132.789,306.860 133.521,306.200 134.166 L 305.000 135.337 304.884 147.869 C 304.785 158.534,304.681 160.400,304.184 160.400 C 303.863 160.400,303.600 160.223,303.600 160.008 C 303.600 159.792,303.150 159.502,302.600 159.364 C 302.050 159.226,301.600 158.953,301.600 158.757 C 301.600 158.560,301.402 158.400,301.160 158.400 C 300.748 158.400,299.040 157.712,296.840 156.659 C 294.399 155.491,278.000 156.347,278.000 157.643 C 278.000 157.790,277.370 158.029,276.600 158.174 C 275.830 158.318,275.200 158.589,275.200 158.775 C 275.200 158.961,274.795 159.217,274.300 159.344 C 273.805 159.471,272.913 160.031,272.317 160.588 C 271.722 161.144,271.118 161.600,270.974 161.600 C 270.228 161.600,264.800 167.831,264.800 168.687 C 264.800 168.969,264.634 169.200,264.432 169.200 C 264.229 169.200,263.945 169.740,263.800 170.400 C 263.655 171.060,263.413 171.600,263.262 171.600 C 262.907 171.600,261.600 175.275,261.600 176.274 C 261.600 176.695,261.407 177.233,261.172 177.468 C 260.640 178.000,260.594 189.059,261.121 189.731 C 261.322 189.989,261.607 190.829,261.753 191.597 C 262.079 193.310,262.889 195.200,263.298 195.200 C 263.464 195.200,263.606 195.425,263.614 195.700 C 263.630 196.319,264.831 198.838,265.482 199.621 C 268.753 203.551,270.339 205.200,270.850 205.200 C 271.063 205.200,271.635 205.618,272.119 206.130 C 273.058 207.121,277.868 209.600,278.852 209.600 C 279.175 209.600,279.665 209.825,279.940 210.100 C 280.607 210.767,296.687 210.821,297.115 210.158 C 297.272 209.914,298.062 209.594,298.871 209.445 C 299.680 209.296,300.400 209.045,300.471 208.887 C 300.542 208.729,301.285 208.251,302.123 207.825 C 302.960 207.398,304.095 206.633,304.643 206.125 C 305.192 205.616,305.781 205.200,305.953 205.200 C 306.481 205.200,310.350 201.188,310.609 200.371 C 310.744 199.947,310.993 199.600,311.163 199.600 C 311.332 199.600,311.815 198.882,312.236 198.005 C 312.656 197.127,313.121 196.407,313.268 196.405 C 313.416 196.402,313.655 195.860,313.800 195.200 C 313.945 194.540,314.216 194.000,314.403 194.000 C 314.590 194.000,314.866 193.010,315.017 191.800 C 315.168 190.590,315.451 189.600,315.646 189.600 C 315.848 189.600,316.000 177.905,316.000 162.400 C 316.000 144.533,315.863 135.200,315.600 135.200 C 315.380 135.200,315.200 134.924,315.200 134.587 C 315.200 134.251,314.885 133.859,314.500 133.717 C 314.115 133.575,313.710 133.354,313.600 133.227 C 313.333 132.918,310.642 131.989,310.172 132.043 C 309.967 132.066,309.260 132.290,308.600 132.539 M242.013 141.076 C 239.615 142.755,239.410 143.191,239.405 146.621 C 239.400 149.710,239.453 149.899,240.600 150.920 C 242.612 152.710,242.745 152.800,243.389 152.800 C 243.731 152.800,244.355 153.015,244.776 153.278 C 245.369 153.648,245.777 153.648,246.589 153.278 C 247.166 153.015,247.989 152.800,248.419 152.800 C 248.848 152.800,249.200 152.632,249.200 152.427 C 249.200 152.222,249.560 151.940,250.000 151.800 C 250.440 151.660,250.800 151.303,250.800 151.006 C 250.800 150.710,251.025 150.392,251.300 150.300 C 251.647 150.184,251.800 149.102,251.800 146.757 L 251.800 143.380 250.266 141.890 C 248.456 140.133,243.989 139.692,242.013 141.076 M110.800 156.288 C 110.250 156.387,109.629 156.632,109.420 156.834 C 109.211 157.035,108.626 157.200,108.120 157.200 C 107.614 157.200,107.200 157.380,107.200 157.600 C 107.200 157.820,106.995 158.000,106.744 158.000 C 106.132 158.000,102.735 159.672,102.071 160.300 C 101.781 160.575,101.405 160.800,101.236 160.800 C 100.667 160.800,95.288 166.291,95.016 167.150 C 94.868 167.617,94.578 168.000,94.373 168.000 C 94.168 168.000,94.000 168.276,94.000 168.613 C 94.000 168.949,93.730 169.329,93.400 169.455 C 93.070 169.582,92.800 169.864,92.800 170.082 C 92.800 170.467,91.888 172.720,91.191 174.055 C 91.004 174.415,90.725 175.814,90.572 177.163 C 90.420 178.513,90.138 179.714,89.947 179.833 C 89.494 180.113,89.494 186.687,89.947 186.968 C 90.139 187.086,90.419 188.446,90.572 189.991 C 90.724 191.536,91.018 192.800,91.224 192.800 C 91.431 192.800,91.600 193.250,91.600 193.800 C 91.600 194.350,91.766 194.800,91.968 194.800 C 92.171 194.800,92.455 195.340,92.600 196.000 C 92.745 196.660,93.026 197.200,93.224 197.200 C 93.422 197.200,93.698 197.650,93.836 198.200 C 93.974 198.750,94.253 199.200,94.456 199.200 C 94.659 199.200,94.945 199.515,95.091 199.900 C 95.401 200.713,100.312 205.714,101.200 206.120 C 102.022 206.497,103.357 207.347,103.600 207.649 C 103.919 208.046,107.502 209.600,108.098 209.600 C 108.396 209.600,108.865 209.825,109.140 210.100 C 109.808 210.767,125.887 210.821,126.315 210.158 C 126.472 209.914,127.275 209.591,128.100 209.440 C 128.925 209.288,129.600 209.011,129.600 208.825 C 129.600 208.639,130.009 208.384,130.508 208.259 C 131.007 208.134,131.810 207.664,132.291 207.215 C 132.773 206.767,133.346 206.400,133.566 206.400 C 134.198 206.400,140.800 199.631,140.800 198.983 C 140.800 198.662,140.968 198.400,141.173 198.400 C 141.378 198.400,141.672 197.995,141.827 197.500 C 141.981 197.005,142.228 196.510,142.375 196.400 C 142.865 196.033,144.000 193.290,144.000 192.473 C 144.000 192.029,144.225 191.592,144.500 191.500 C 144.877 191.374,145.000 189.448,145.000 183.687 C 145.000 178.103,144.865 175.905,144.500 175.540 C 144.225 175.265,144.000 174.772,144.000 174.444 C 144.000 173.740,141.535 168.660,141.100 168.467 C 140.935 168.393,140.800 168.118,140.800 167.856 C 140.800 167.593,140.485 167.092,140.100 166.744 C 139.715 166.395,138.952 165.545,138.404 164.855 C 137.857 164.165,137.271 163.600,137.103 163.600 C 136.935 163.600,136.147 162.880,135.352 162.000 C 134.557 161.120,133.658 160.400,133.353 160.400 C 133.049 160.400,132.800 160.223,132.800 160.008 C 132.800 159.792,132.350 159.502,131.800 159.364 C 131.250 159.226,130.800 158.967,130.800 158.788 C 130.800 158.610,130.215 158.337,129.500 158.182 C 128.785 158.026,128.110 157.778,128.000 157.630 C 127.033 156.327,115.571 155.432,110.800 156.288 M154.072 157.136 C 153.372 157.760,152.800 158.560,152.800 158.912 C 152.800 159.264,152.624 159.661,152.410 159.794 C 152.163 159.946,152.020 168.648,152.020 183.400 C 152.020 198.152,152.163 206.854,152.410 207.006 C 152.624 207.139,152.806 207.552,152.813 207.924 C 152.873 210.936,159.494 212.055,162.127 209.497 L 163.551 208.115 163.675 191.677 C 163.770 179.198,163.920 175.119,164.300 174.740 C 164.575 174.465,164.800 173.944,164.800 173.581 C 164.800 173.219,165.115 172.552,165.500 172.099 C 165.885 171.645,166.465 170.898,166.788 170.437 C 167.112 169.977,167.585 169.600,167.839 169.600 C 168.094 169.600,168.517 169.342,168.779 169.026 C 169.041 168.710,169.783 168.336,170.428 168.194 C 171.072 168.052,171.600 167.771,171.600 167.568 C 171.600 166.880,176.648 167.163,178.467 167.953 C 180.275 168.739,183.600 171.561,183.600 172.310 C 183.600 172.548,183.915 173.058,184.300 173.442 C 184.940 174.082,185.010 175.556,185.117 190.671 C 185.189 200.863,185.380 207.200,185.617 207.200 C 185.828 207.200,186.000 207.532,186.000 207.939 C 186.000 210.843,192.675 212.063,195.130 209.608 L 196.400 208.338 196.400 192.769 C 196.400 182.656,196.540 177.200,196.800 177.200 C 197.020 177.200,197.200 176.756,197.200 176.214 C 197.200 175.217,198.263 172.580,199.000 171.749 C 199.220 171.501,199.665 170.916,199.988 170.449 C 200.312 169.982,200.798 169.600,201.068 169.600 C 201.339 169.600,201.704 169.375,201.880 169.100 C 202.919 167.477,208.556 166.735,211.451 167.841 C 213.371 168.574,217.200 172.001,217.200 172.986 C 217.200 173.287,217.425 173.608,217.700 173.700 C 218.087 173.829,218.226 177.639,218.317 190.533 C 218.381 199.700,218.586 207.200,218.773 207.200 C 218.960 207.200,219.232 207.672,219.376 208.248 C 220.090 211.092,226.063 211.991,228.395 209.605 L 229.643 208.328 229.522 189.549 C 229.436 176.295,229.269 170.686,228.954 170.485 C 228.709 170.328,228.370 169.750,228.201 169.200 C 228.033 168.650,227.588 167.750,227.213 167.200 C 226.837 166.650,226.417 165.885,226.278 165.500 C 226.139 165.115,225.839 164.800,225.613 164.800 C 225.386 164.800,225.200 164.543,225.200 164.229 C 225.200 163.914,224.955 163.419,224.656 163.129 C 223.149 161.665,221.568 160.400,221.246 160.400 C 221.048 160.400,220.782 160.130,220.655 159.800 C 220.529 159.470,220.149 159.200,219.813 159.200 C 219.476 159.200,219.200 159.028,219.200 158.818 C 219.200 158.608,218.570 158.318,217.800 158.174 C 217.030 158.029,216.400 157.795,216.400 157.653 C 216.400 157.511,215.815 157.126,215.100 156.798 C 212.343 155.530,198.400 156.227,198.400 157.632 C 198.400 157.800,197.860 158.055,197.200 158.200 C 196.540 158.345,196.000 158.617,196.000 158.805 C 196.000 158.993,195.622 159.266,195.161 159.413 C 194.699 159.559,193.604 160.396,192.729 161.271 L 191.136 162.864 189.668 161.285 C 188.861 160.417,187.795 159.580,187.300 159.426 C 186.805 159.272,186.400 158.993,186.400 158.805 C 186.400 158.617,185.860 158.345,185.200 158.200 C 184.540 158.055,184.000 157.771,184.000 157.568 C 184.000 157.366,183.565 157.200,183.033 157.200 C 182.502 157.200,181.992 156.975,181.900 156.700 C 181.775 156.325,179.968 156.200,174.686 156.200 C 169.582 156.200,167.502 156.338,167.140 156.700 C 166.865 156.975,166.331 157.200,165.953 157.200 C 165.576 157.200,165.207 157.367,165.133 157.570 C 165.060 157.774,164.531 158.057,163.958 158.199 C 162.935 158.453,162.724 158.327,161.284 156.614 C 160.297 155.439,155.591 155.780,154.072 157.136 M241.688 157.366 L 240.400 158.731 240.400 183.552 L 240.400 208.372 241.627 209.627 C 243.938 211.991,249.914 211.075,250.624 208.248 C 250.768 207.672,251.047 207.200,251.243 207.200 C 251.448 207.200,251.600 197.071,251.600 183.400 C 251.600 169.170,251.452 159.600,251.232 159.600 C 251.029 159.600,250.753 159.095,250.617 158.478 C 249.998 155.659,244.002 154.912,241.688 157.366 M344.200 156.160 C 343.980 156.239,343.035 156.534,342.100 156.815 C 341.165 157.097,340.400 157.456,340.400 157.613 C 340.400 157.770,339.680 158.013,338.800 158.154 C 337.920 158.294,337.200 158.546,337.200 158.714 C 337.200 158.881,336.563 159.361,335.785 159.780 C 334.203 160.632,328.000 166.504,328.000 167.149 C 328.000 167.377,327.550 168.014,327.000 168.564 C 326.450 169.114,326.000 169.842,326.000 170.182 C 326.000 170.522,325.840 170.800,325.645 170.800 C 325.449 170.800,325.171 171.430,325.026 172.200 C 324.882 172.970,324.606 173.600,324.414 173.600 C 324.221 173.600,323.938 174.773,323.785 176.206 C 323.631 177.639,323.347 178.909,323.153 179.029 C 322.677 179.323,322.701 187.030,323.180 187.905 C 323.390 188.287,323.673 189.635,323.809 190.900 C 323.946 192.165,324.205 193.200,324.384 193.200 C 324.564 193.200,324.829 193.830,324.974 194.600 C 325.118 195.370,325.394 196.000,325.586 196.000 C 325.779 196.000,326.047 196.505,326.183 197.122 C 326.319 197.740,326.783 198.499,327.215 198.811 C 327.647 199.122,328.000 199.544,328.000 199.748 C 328.000 200.067,328.814 200.994,331.110 203.290 C 333.475 205.655,334.345 206.400,334.740 206.400 C 334.993 206.400,335.200 206.549,335.200 206.732 C 335.200 207.159,340.044 209.600,340.891 209.600 C 341.244 209.600,341.608 209.825,341.700 210.100 C 341.826 210.479,343.929 210.600,350.400 210.600 C 356.871 210.600,358.974 210.479,359.100 210.100 C 359.192 209.825,359.552 209.600,359.902 209.600 C 360.805 209.600,365.737 207.165,366.120 206.530 C 366.640 205.669,367.200 205.923,367.200 207.020 C 367.200 211.475,375.777 212.358,377.951 208.126 C 378.532 206.995,378.538 180.565,377.958 178.000 C 377.734 177.010,377.451 175.705,377.330 175.100 C 377.209 174.495,376.965 174.000,376.790 174.000 C 376.614 174.000,376.349 173.280,376.200 172.400 C 376.051 171.520,375.766 170.800,375.565 170.800 C 375.364 170.800,375.200 170.565,375.200 170.279 C 375.200 169.204,367.994 160.800,367.072 160.800 C 366.945 160.800,366.038 160.259,365.059 159.598 C 364.079 158.936,362.720 158.284,362.039 158.148 C 361.357 158.011,360.800 157.743,360.800 157.550 C 360.800 157.358,360.476 157.200,360.080 157.200 C 359.684 157.200,359.138 156.978,358.867 156.707 C 358.410 156.250,345.317 155.762,344.200 156.160 M122.800 168.039 C 123.790 168.343,124.838 168.819,125.129 169.096 C 125.419 169.373,125.914 169.600,126.229 169.600 C 126.543 169.600,126.800 169.786,126.800 170.013 C 126.800 170.239,127.115 170.544,127.500 170.689 C 128.517 171.073,130.248 172.890,130.573 173.915 C 130.728 174.402,131.022 174.800,131.227 174.800 C 131.432 174.800,131.600 175.070,131.600 175.400 C 131.600 175.730,131.760 176.000,131.957 176.000 C 132.153 176.000,132.437 176.493,132.588 177.096 C 132.740 177.699,133.074 178.322,133.332 178.481 C 133.923 178.847,133.985 187.897,133.400 188.315 C 133.180 188.472,132.596 189.410,132.102 190.400 C 130.542 193.527,130.563 193.502,126.515 197.145 C 124.135 199.286,113.122 200.616,112.056 198.891 C 111.911 198.656,111.299 198.340,110.696 198.188 C 110.093 198.037,109.600 197.753,109.600 197.557 C 109.600 197.360,109.361 197.200,109.069 197.200 C 108.205 197.200,103.774 192.295,102.927 190.400 C 102.779 190.070,102.505 189.696,102.319 189.570 C 102.132 189.443,101.879 188.363,101.758 187.170 C 101.636 185.976,101.334 184.583,101.087 184.074 C 100.775 183.432,100.766 183.064,101.057 182.874 C 101.289 182.723,101.597 181.430,101.743 180.000 C 101.889 178.570,102.186 177.340,102.404 177.267 C 102.622 177.193,102.800 176.878,102.800 176.567 C 102.800 176.255,102.968 176.000,103.173 176.000 C 103.378 176.000,103.673 175.601,103.827 175.114 C 104.520 172.933,110.825 168.000,112.920 168.000 C 113.268 168.000,113.672 167.808,113.817 167.573 C 114.174 166.995,120.470 167.322,122.800 168.039 M292.925 167.869 C 294.066 168.237,295.090 168.642,295.200 168.769 C 295.310 168.896,296.106 169.360,296.969 169.800 C 298.883 170.776,301.600 173.472,301.600 174.396 C 301.600 174.632,301.870 174.929,302.200 175.055 C 302.530 175.182,302.800 175.536,302.800 175.843 C 302.800 176.149,302.969 176.400,303.175 176.400 C 303.382 176.400,303.673 177.212,303.822 178.205 C 303.971 179.198,304.252 180.108,304.446 180.229 C 304.909 180.514,304.908 186.800,304.445 186.800 C 304.250 186.800,303.969 187.610,303.821 188.600 C 303.672 189.590,303.402 190.400,303.219 190.400 C 303.036 190.400,302.774 190.850,302.636 191.400 C 302.498 191.950,302.208 192.400,301.992 192.400 C 301.777 192.400,301.600 192.574,301.600 192.787 C 301.600 193.704,296.918 197.661,295.200 198.196 C 294.650 198.368,294.071 198.709,293.914 198.954 C 293.509 199.586,283.273 199.566,282.881 198.932 C 282.722 198.674,282.099 198.340,281.496 198.188 C 280.893 198.037,280.400 197.753,280.400 197.557 C 280.400 197.360,280.218 197.200,279.997 197.200 C 279.162 197.200,274.800 192.978,274.800 192.169 C 274.800 191.856,274.634 191.600,274.432 191.600 C 274.229 191.600,273.945 191.060,273.800 190.400 C 273.655 189.740,273.371 189.200,273.168 189.200 C 272.966 189.200,272.800 188.750,272.800 188.200 C 272.800 187.650,272.620 187.200,272.400 187.200 C 272.161 187.200,272.000 185.667,272.000 183.400 C 272.000 181.133,272.161 179.600,272.400 179.600 C 272.620 179.600,272.800 179.251,272.800 178.824 C 272.800 178.397,272.966 177.945,273.169 177.819 C 273.372 177.694,273.657 177.053,273.801 176.395 C 273.945 175.738,274.229 175.200,274.432 175.200 C 274.634 175.200,274.800 174.970,274.800 174.689 C 274.800 174.408,275.115 173.880,275.500 173.517 C 275.885 173.154,276.398 172.619,276.640 172.328 C 277.686 171.074,279.644 169.604,280.583 169.368 C 281.142 169.228,281.600 168.961,281.600 168.775 C 281.600 168.589,282.232 168.318,283.004 168.173 C 283.777 168.028,284.507 167.750,284.628 167.555 C 285.005 166.944,290.728 167.161,292.925 167.869 M354.200 167.600 C 354.336 167.820,354.732 168.000,355.080 168.000 C 357.560 168.000,363.029 172.321,364.686 175.590 C 365.079 176.366,365.517 177.090,365.661 177.200 C 365.804 177.310,366.052 178.300,366.211 179.400 C 366.371 180.500,366.678 181.623,366.895 181.894 C 368.549 183.971,364.219 194.068,360.900 195.874 C 360.185 196.264,359.600 196.721,359.600 196.891 C 359.600 197.061,359.330 197.200,359.000 197.200 C 358.670 197.200,358.400 197.345,358.400 197.523 C 358.400 199.263,347.285 200.197,344.600 198.682 C 343.940 198.310,343.218 198.004,342.996 198.002 C 342.774 198.001,342.107 197.550,341.513 197.000 C 340.920 196.450,340.337 196.000,340.217 196.000 C 339.514 196.000,336.528 192.048,336.178 190.655 C 336.032 190.075,335.761 189.600,335.575 189.600 C 335.389 189.600,335.128 188.925,334.996 188.100 C 334.864 187.275,334.586 186.287,334.378 185.905 C 333.904 185.035,333.881 181.721,334.347 181.433 C 334.538 181.315,334.788 180.382,334.903 179.360 C 335.019 178.337,335.298 177.387,335.525 177.247 C 335.751 177.107,336.060 176.499,336.212 175.896 C 336.363 175.293,336.608 174.800,336.757 174.800 C 336.906 174.800,337.361 174.235,337.769 173.545 C 338.736 171.908,339.721 170.943,340.761 170.613 C 341.222 170.466,341.600 170.207,341.600 170.037 C 341.600 169.681,343.025 168.949,345.600 167.983 C 347.611 167.228,353.800 166.952,354.200 167.600 M52.200 251.998 C 51.100 252.186,49.345 252.466,48.300 252.622 C 47.255 252.777,46.400 253.040,46.400 253.207 C 46.400 253.373,45.590 253.631,44.600 253.779 C 43.610 253.928,42.800 254.218,42.800 254.425 C 42.800 254.631,42.512 254.800,42.160 254.800 C 41.295 254.800,38.875 255.948,37.362 257.077 C 36.681 257.585,35.911 258.000,35.650 258.000 C 35.389 258.000,35.071 258.270,34.945 258.600 C 34.818 258.930,34.468 259.200,34.167 259.200 C 33.550 259.200,27.401 265.247,25.708 267.519 C 25.101 268.333,24.514 269.090,24.402 269.200 C 24.291 269.310,23.857 270.030,23.438 270.800 C 23.019 271.570,22.254 272.975,21.738 273.921 C 21.222 274.868,20.799 275.858,20.798 276.121 C 20.796 276.385,20.537 277.094,20.222 277.698 C 19.907 278.302,19.524 279.652,19.369 280.698 C 19.215 281.744,18.899 282.722,18.667 282.872 C 18.069 283.256,18.065 299.144,18.662 299.521 C 18.905 299.674,19.232 300.745,19.389 301.900 C 19.546 303.055,19.838 304.000,20.038 304.000 C 20.237 304.000,20.400 304.379,20.400 304.843 C 20.400 305.861,22.703 310.800,23.177 310.800 C 23.362 310.800,23.632 311.272,23.776 311.848 C 23.921 312.425,24.256 313.139,24.520 313.434 C 25.613 314.659,26.000 315.180,26.000 315.430 C 26.000 315.756,33.117 322.800,33.447 322.800 C 33.578 322.800,34.367 323.340,35.200 324.000 C 36.033 324.660,37.004 325.200,37.358 325.200 C 37.711 325.200,38.000 325.353,38.000 325.540 C 38.000 325.727,38.810 326.213,39.800 326.622 C 40.790 327.030,41.600 327.505,41.600 327.677 C 41.600 327.850,42.320 328.106,43.200 328.246 C 44.080 328.387,44.800 328.650,44.800 328.831 C 44.800 329.012,45.884 329.283,47.209 329.433 C 48.534 329.583,49.714 329.862,49.833 330.053 C 50.114 330.507,64.800 330.506,64.800 330.052 C 64.800 329.860,65.880 329.581,67.200 329.432 C 68.520 329.282,69.600 328.989,69.600 328.780 C 69.600 328.571,70.005 328.399,70.500 328.398 C 70.995 328.396,71.916 328.126,72.546 327.798 C 73.176 327.469,73.941 327.200,74.246 327.200 C 74.551 327.200,74.800 327.040,74.800 326.843 C 74.800 326.647,75.293 326.363,75.896 326.212 C 76.499 326.060,77.084 325.806,77.196 325.647 C 77.308 325.488,78.120 324.922,79.000 324.389 C 83.878 321.435,85.600 316.867,82.901 314.042 C 82.248 313.359,81.508 312.800,81.257 312.800 C 81.006 312.800,80.800 312.599,80.800 312.353 C 80.800 310.958,74.675 312.525,72.800 314.400 C 72.043 315.157,67.757 317.200,66.926 317.200 C 66.611 317.200,66.450 317.357,66.568 317.549 C 66.792 317.911,64.614 318.388,62.700 318.396 C 62.095 318.398,61.600 318.580,61.600 318.800 C 61.600 319.296,53.738 319.347,53.433 318.853 C 53.314 318.662,52.134 318.383,50.809 318.233 C 49.484 318.083,48.400 317.789,48.400 317.580 C 48.400 317.371,47.950 317.200,47.400 317.200 C 46.850 317.200,46.400 317.034,46.400 316.832 C 46.400 316.629,45.860 316.345,45.200 316.200 C 44.540 316.055,44.000 315.783,44.000 315.595 C 44.000 315.407,43.609 315.130,43.131 314.978 C 42.047 314.634,41.836 314.462,38.092 310.863 C 35.138 308.023,34.294 306.979,33.760 305.500 C 33.621 305.115,33.348 304.800,33.153 304.800 C 32.959 304.800,32.800 304.530,32.800 304.200 C 32.800 303.870,32.628 303.600,32.418 303.600 C 32.208 303.600,31.918 302.970,31.774 302.200 C 31.629 301.430,31.362 300.800,31.180 300.800 C 30.998 300.800,30.739 299.945,30.604 298.900 C 30.469 297.855,30.188 296.687,29.980 296.305 C 29.501 295.429,29.477 286.523,29.953 286.229 C 30.148 286.109,30.430 285.018,30.582 283.805 C 30.734 282.592,31.025 281.600,31.229 281.600 C 31.433 281.600,31.600 281.421,31.600 281.203 C 31.600 280.520,32.973 277.600,33.294 277.600 C 33.462 277.600,33.600 277.413,33.600 277.184 C 33.600 276.028,40.450 268.692,41.984 268.205 C 42.433 268.063,42.800 267.778,42.800 267.573 C 42.800 267.368,43.070 267.200,43.400 267.200 C 43.730 267.200,44.000 267.034,44.000 266.832 C 44.000 266.629,44.540 266.345,45.200 266.200 C 45.860 266.055,46.400 265.791,46.400 265.613 C 46.400 265.435,47.075 265.162,47.899 265.008 C 48.724 264.853,49.527 264.518,49.684 264.263 C 50.085 263.615,64.054 263.616,64.839 264.264 C 65.147 264.520,66.075 264.855,66.900 265.009 C 67.725 265.163,68.400 265.429,68.400 265.601 C 68.400 265.773,68.888 266.036,69.483 266.185 C 70.079 266.335,71.834 267.384,73.383 268.516 C 76.323 270.665,81.005 271.578,81.499 270.100 C 81.591 269.825,81.901 269.600,82.187 269.600 C 82.474 269.600,83.017 269.128,83.395 268.551 C 84.728 266.517,83.812 260.400,82.174 260.400 C 82.019 260.400,81.494 259.971,81.008 259.447 C 80.522 258.923,79.737 258.370,79.262 258.220 C 78.788 258.069,78.400 257.778,78.400 257.573 C 78.400 257.368,78.130 257.200,77.800 257.200 C 77.470 257.200,77.200 257.034,77.200 256.832 C 77.200 256.629,76.660 256.345,76.000 256.200 C 75.340 256.055,74.800 255.779,74.800 255.586 C 74.800 255.394,74.170 255.118,73.400 254.974 C 72.630 254.829,72.000 254.562,72.000 254.380 C 72.000 254.198,71.190 253.928,70.200 253.779 C 69.210 253.631,68.400 253.350,68.400 253.155 C 68.400 252.960,67.710 252.800,66.867 252.800 C 66.023 252.800,65.208 252.675,65.055 252.522 C 64.405 251.872,55.149 251.495,52.200 251.998 M220.800 251.886 C 219.914 252.216,218.024 254.123,218.011 254.700 C 218.005 254.975,217.820 255.200,217.600 255.200 C 217.344 255.200,217.200 258.800,217.200 265.200 L 217.200 275.200 215.000 275.200 C 213.790 275.200,212.800 275.337,212.800 275.505 C 212.800 275.673,212.400 275.988,211.910 276.205 C 211.417 276.424,210.857 277.179,210.652 277.900 C 210.450 278.615,210.130 279.200,209.942 279.200 C 209.462 279.200,209.513 281.499,210.000 281.800 C 210.220 281.936,210.400 282.474,210.400 282.995 C 210.400 283.885,210.626 284.203,212.202 285.531 C 212.548 285.822,213.814 286.163,215.016 286.286 L 217.200 286.512 217.200 300.856 C 217.200 308.745,217.354 315.200,217.543 315.200 C 217.732 315.200,218.003 316.315,218.145 317.678 C 218.287 319.040,218.569 320.257,218.770 320.382 C 218.972 320.506,219.260 321.101,219.412 321.704 C 219.563 322.307,219.847 322.800,220.043 322.800 C 220.240 322.800,220.400 323.041,220.400 323.335 C 220.400 323.951,223.742 327.200,224.377 327.200 C 224.609 327.200,224.800 327.346,224.800 327.525 C 224.800 328.000,228.641 329.600,229.780 329.600 C 230.315 329.600,230.864 329.780,231.000 330.000 C 231.307 330.496,240.400 330.541,240.400 330.047 C 240.400 329.852,240.715 329.611,241.100 329.510 C 241.485 329.409,242.046 328.803,242.347 328.163 C 242.647 327.523,243.052 326.687,243.247 326.305 C 243.725 325.365,243.695 323.600,243.200 323.600 C 242.980 323.600,242.800 323.216,242.800 322.746 C 242.800 320.826,239.956 319.200,236.598 319.200 C 235.415 319.200,234.348 319.040,234.227 318.844 C 234.106 318.649,233.543 318.372,232.976 318.230 C 231.357 317.823,229.537 315.698,229.301 313.939 C 229.188 313.092,228.938 312.400,228.747 312.400 C 228.556 312.400,228.400 306.566,228.400 299.436 L 228.400 286.473 232.532 286.336 C 238.139 286.151,239.400 285.098,239.400 280.601 C 239.400 277.589,239.237 277.253,237.114 275.895 C 236.278 275.360,235.152 275.200,232.214 275.200 L 228.400 275.200 228.400 265.010 L 228.400 254.819 226.965 253.510 C 224.972 251.690,222.839 251.128,220.800 251.886 M360.851 252.031 C 359.508 252.568,358.015 254.074,358.007 254.900 C 358.003 255.285,357.820 255.600,357.600 255.600 C 357.336 255.600,357.200 267.667,357.200 291.000 C 357.200 314.333,357.336 326.400,357.600 326.400 C 357.820 326.400,358.003 326.805,358.006 327.300 C 358.009 327.795,358.144 328.384,358.306 328.609 C 360.576 331.771,375.200 331.056,375.200 327.784 C 375.200 327.463,375.380 327.200,375.600 327.200 C 376.178 327.200,376.093 322.878,375.500 322.164 C 373.538 319.800,372.419 319.200,369.974 319.200 L 368.400 319.200 368.400 287.162 C 368.400 251.470,368.575 253.676,365.634 252.300 C 363.999 251.535,362.325 251.441,360.851 252.031 M111.600 275.554 C 111.600 275.749,110.610 276.032,109.400 276.183 C 108.190 276.334,107.200 276.625,107.200 276.829 C 107.200 277.033,106.930 277.200,106.600 277.200 C 106.270 277.200,106.000 277.366,106.000 277.568 C 106.000 277.771,105.460 278.055,104.800 278.200 C 104.140 278.345,103.600 278.629,103.600 278.832 C 103.600 279.034,103.343 279.200,103.029 279.200 C 102.714 279.200,102.211 279.446,101.910 279.747 C 101.609 280.048,100.966 280.420,100.481 280.574 C 99.997 280.728,99.600 281.008,99.600 281.196 C 99.600 281.611,97.256 284.000,96.850 284.000 C 96.691 284.000,96.120 284.715,95.580 285.589 C 95.041 286.463,94.465 287.183,94.300 287.189 C 94.135 287.195,94.000 287.457,94.000 287.771 C 94.000 288.086,93.775 288.589,93.500 288.890 C 92.702 289.762,91.600 292.003,91.600 292.752 C 91.600 293.131,91.432 293.611,91.227 293.820 C 90.359 294.703,89.138 306.400,89.914 306.400 C 90.118 306.400,90.403 307.517,90.546 308.882 C 90.688 310.248,90.984 311.544,91.202 311.762 C 91.421 311.981,91.600 312.501,91.600 312.918 C 91.600 313.713,92.646 315.805,93.500 316.721 C 93.775 317.016,94.000 317.514,94.000 317.829 C 94.000 318.143,94.135 318.405,94.300 318.411 C 94.465 318.417,95.041 319.136,95.579 320.009 C 96.118 320.882,96.883 321.699,97.279 321.825 C 97.676 321.951,98.000 322.208,98.000 322.396 C 98.000 322.962,100.419 325.200,101.031 325.200 C 101.344 325.200,101.600 325.368,101.600 325.573 C 101.600 325.778,101.978 326.066,102.439 326.213 C 102.901 326.359,103.627 326.827,104.052 327.252 C 104.477 327.677,105.359 328.132,106.013 328.263 C 106.666 328.393,107.200 328.641,107.200 328.812 C 107.200 328.984,108.100 329.249,109.200 329.400 C 110.299 329.551,111.300 329.838,111.423 330.037 C 111.710 330.501,124.000 330.516,124.000 330.053 C 124.000 329.862,124.685 329.613,125.522 329.501 C 127.143 329.284,131.447 327.402,132.329 326.526 C 132.619 326.236,133.038 326.000,133.259 326.000 C 133.481 326.000,134.164 325.505,134.779 324.900 C 135.393 324.295,136.324 323.418,136.848 322.952 C 137.372 322.485,138.430 321.354,139.200 320.439 C 139.970 319.523,140.801 318.547,141.047 318.269 C 141.293 317.990,141.620 317.366,141.774 316.881 C 141.928 316.397,142.222 316.000,142.427 316.000 C 142.632 316.000,142.800 315.751,142.800 315.446 C 142.800 315.141,143.069 314.376,143.398 313.746 C 143.726 313.116,143.996 312.210,143.998 311.733 C 143.999 311.257,144.225 310.792,144.500 310.700 C 145.169 310.477,145.225 295.316,144.558 294.885 C 144.314 294.728,143.991 293.925,143.840 293.100 C 143.688 292.275,143.392 291.600,143.182 291.600 C 142.972 291.600,142.800 291.240,142.800 290.800 C 142.800 290.360,142.623 290.000,142.408 290.000 C 142.192 290.000,141.902 289.550,141.764 289.000 C 141.626 288.450,141.353 288.000,141.157 288.000 C 140.960 288.000,140.800 287.716,140.800 287.369 C 140.800 286.395,133.978 279.924,131.767 278.800 C 130.685 278.250,129.740 277.665,129.667 277.500 C 129.593 277.335,129.299 277.200,129.012 277.200 C 128.726 277.200,127.976 276.931,127.346 276.602 C 126.716 276.274,125.716 276.004,125.124 276.002 C 124.532 276.001,123.936 275.820,123.800 275.600 C 123.491 275.101,111.600 275.056,111.600 275.554 M153.615 276.832 L 152.000 278.463 152.000 302.765 L 152.000 327.067 153.539 328.733 C 155.067 330.389,160.400 331.373,160.400 330.000 C 160.400 329.780,160.630 329.600,160.911 329.600 C 161.538 329.600,162.800 328.181,162.800 327.475 C 162.800 327.192,162.970 326.789,163.178 326.580 C 163.397 326.360,163.607 319.936,163.678 311.285 C 163.767 300.438,163.928 296.291,164.268 296.081 C 164.526 295.922,164.860 295.299,165.012 294.696 C 165.163 294.093,165.435 293.600,165.616 293.600 C 165.798 293.600,166.069 293.214,166.218 292.742 C 166.513 291.814,168.603 289.600,169.185 289.600 C 169.382 289.600,169.789 289.375,170.090 289.100 C 170.999 288.268,173.216 287.200,174.032 287.200 C 174.455 287.200,174.800 287.020,174.800 286.800 C 174.800 286.308,180.132 286.261,181.105 286.745 C 181.487 286.934,182.868 287.609,184.173 288.245 C 186.626 289.439,188.967 291.367,189.840 292.913 C 192.252 297.180,192.333 297.794,192.384 312.093 C 192.409 319.180,192.528 325.433,192.648 325.989 C 192.993 327.586,194.133 329.600,194.691 329.600 C 194.971 329.600,195.200 329.780,195.200 330.000 C 195.200 330.229,196.400 330.400,198.000 330.400 C 199.540 330.400,200.800 330.240,200.800 330.043 C 200.800 329.847,201.205 329.585,201.700 329.460 C 203.898 328.907,204.084 327.324,203.936 310.448 C 203.831 298.596,203.685 295.028,203.300 294.900 C 203.025 294.808,202.800 294.208,202.800 293.567 C 202.800 292.925,202.640 292.400,202.445 292.400 C 202.249 292.400,201.971 291.770,201.826 291.000 C 201.682 290.230,201.406 289.600,201.214 289.600 C 201.021 289.600,200.745 289.060,200.600 288.400 C 200.455 287.740,200.171 287.200,199.968 287.200 C 199.766 287.200,199.600 286.958,199.600 286.662 C 199.600 285.934,193.279 279.600,192.552 279.600 C 192.235 279.600,191.876 279.341,191.754 279.024 C 191.633 278.708,191.008 278.334,190.367 278.193 C 189.725 278.052,189.200 277.771,189.200 277.568 C 189.200 277.366,188.951 277.200,188.646 277.200 C 188.341 277.200,187.576 276.931,186.946 276.602 C 186.316 276.274,185.316 276.004,184.724 276.002 C 184.132 276.001,183.536 275.820,183.400 275.600 C 183.254 275.364,180.870 275.200,177.600 275.200 C 174.330 275.200,171.946 275.364,171.800 275.600 C 171.664 275.820,171.158 276.004,170.676 276.009 C 170.194 276.014,168.720 276.550,167.400 277.200 C 166.080 277.850,164.790 278.386,164.533 278.391 C 164.277 278.396,163.996 278.612,163.910 278.871 C 163.704 279.487,162.800 278.921,162.800 278.176 C 162.800 277.520,161.403 276.000,160.800 276.000 C 160.580 276.000,160.400 275.820,160.400 275.600 C 160.400 274.268,155.223 275.208,153.615 276.832 M250.500 276.648 L 249.200 278.074 249.200 302.809 L 249.200 327.543 250.547 328.972 C 253.058 331.634,258.234 330.797,259.777 327.479 C 260.260 326.441,260.394 323.564,260.490 312.200 C 260.594 299.778,260.686 298.065,261.301 297.000 C 261.683 296.340,261.996 295.575,261.998 295.300 C 261.999 295.025,262.141 294.800,262.314 294.800 C 262.486 294.800,262.953 294.250,263.350 293.577 C 264.313 291.947,266.562 289.729,267.580 289.406 C 268.031 289.263,268.400 288.993,268.400 288.805 C 268.400 288.617,268.940 288.345,269.600 288.200 C 270.260 288.055,270.800 287.771,270.800 287.568 C 270.800 287.366,271.340 287.200,272.000 287.200 C 272.660 287.200,273.200 287.020,273.200 286.800 C 273.200 286.563,274.667 286.400,276.800 286.400 C 278.933 286.400,280.400 286.563,280.400 286.800 C 280.400 287.020,280.814 287.200,281.320 287.200 C 281.826 287.200,282.411 287.368,282.620 287.574 C 283.013 287.960,285.025 288.197,286.839 288.072 C 290.535 287.816,292.394 281.140,289.485 278.564 C 287.700 276.984,285.872 276.000,284.718 276.000 C 284.191 276.000,283.571 275.811,283.339 275.579 C 282.329 274.569,267.806 275.634,266.636 276.804 C 266.418 277.022,265.916 277.200,265.520 277.200 C 265.124 277.200,264.800 277.360,264.800 277.557 C 264.800 277.753,264.328 278.032,263.752 278.176 C 263.175 278.321,262.433 278.710,262.103 279.040 C 261.391 279.752,260.397 279.638,260.006 278.800 C 259.142 276.947,258.856 276.564,258.067 276.205 C 257.590 275.988,257.200 275.673,257.200 275.505 C 257.200 274.347,251.750 275.276,250.500 276.648 M317.435 275.544 C 317.318 275.733,316.452 275.996,315.511 276.128 C 313.717 276.380,311.608 277.211,311.603 277.668 C 311.601 277.816,311.060 278.055,310.400 278.200 C 309.740 278.345,309.200 278.629,309.200 278.832 C 309.200 279.034,308.967 279.200,308.681 279.200 C 307.814 279.200,301.600 284.621,301.600 285.377 C 301.600 285.518,301.240 286.020,300.800 286.492 C 300.360 286.964,299.776 287.856,299.503 288.475 C 299.229 289.094,298.877 289.600,298.720 289.600 C 298.564 289.600,298.318 290.230,298.174 291.000 C 298.029 291.770,297.751 292.400,297.555 292.400 C 297.360 292.400,297.200 292.724,297.200 293.120 C 297.200 293.516,297.004 294.036,296.765 294.275 C 295.713 295.327,295.732 311.177,296.786 311.529 C 297.014 311.605,297.200 312.102,297.200 312.633 C 297.200 313.165,297.366 313.600,297.568 313.600 C 297.771 313.600,298.055 314.140,298.200 314.800 C 298.345 315.460,298.610 316.000,298.788 316.000 C 298.967 316.000,299.235 316.486,299.384 317.080 C 299.533 317.674,300.093 318.565,300.628 319.061 C 301.162 319.556,301.600 320.080,301.600 320.225 C 301.600 321.005,307.787 326.400,308.681 326.400 C 308.967 326.400,309.200 326.580,309.200 326.800 C 309.200 327.020,309.470 327.200,309.800 327.200 C 310.130 327.200,310.400 327.366,310.400 327.568 C 310.400 327.771,310.940 328.055,311.600 328.200 C 312.260 328.345,312.800 328.616,312.800 328.803 C 312.800 328.990,313.790 329.266,315.000 329.417 C 316.210 329.568,317.200 329.851,317.200 330.046 C 317.200 330.241,319.990 330.400,323.400 330.400 C 326.810 330.400,329.600 330.241,329.600 330.046 C 329.600 329.851,330.590 329.568,331.800 329.417 C 333.010 329.266,334.000 328.990,334.000 328.803 C 334.000 328.616,334.540 328.345,335.200 328.200 C 335.860 328.055,336.400 327.815,336.400 327.666 C 336.400 327.517,336.895 327.176,337.500 326.908 C 339.338 326.095,345.200 321.111,345.200 320.363 C 345.200 320.186,345.616 319.592,346.125 319.043 C 346.633 318.495,347.398 317.360,347.825 316.523 C 348.251 315.685,348.712 314.910,348.850 314.800 C 348.987 314.690,349.235 313.970,349.400 313.200 C 349.565 312.430,349.903 311.672,350.150 311.515 C 350.820 311.089,350.773 295.013,350.100 294.340 C 349.825 294.065,349.600 293.579,349.600 293.260 C 349.600 292.345,347.527 288.347,346.935 288.120 C 346.641 288.007,346.400 287.634,346.400 287.291 C 346.400 286.614,346.222 286.390,343.307 283.400 C 340.775 280.802,339.484 279.744,338.444 279.414 C 337.980 279.267,337.600 278.993,337.600 278.805 C 337.600 278.617,337.060 278.345,336.400 278.200 C 335.740 278.055,335.199 277.816,335.197 277.668 C 335.192 277.212,333.084 276.380,331.300 276.130 C 330.365 275.999,329.600 275.736,329.600 275.546 C 329.600 275.095,317.713 275.093,317.435 275.544 M121.200 286.703 C 121.200 286.869,121.965 287.241,122.900 287.530 C 125.415 288.307,130.400 291.790,130.400 292.771 C 130.400 292.976,130.625 293.381,130.900 293.673 C 133.279 296.193,135.104 306.689,133.379 307.927 C 133.170 308.077,132.588 309.010,132.085 310.000 C 130.380 313.353,129.164 314.781,127.100 315.851 C 126.495 316.164,126.000 316.596,126.000 316.810 C 126.000 317.025,125.730 317.200,125.400 317.200 C 125.070 317.200,124.800 317.369,124.800 317.575 C 124.800 317.782,123.990 318.072,123.000 318.221 C 122.010 318.369,121.200 318.650,121.200 318.845 C 121.200 319.040,119.580 319.200,117.600 319.200 C 115.620 319.200,114.000 319.043,114.000 318.851 C 114.000 318.659,113.280 318.387,112.400 318.246 C 111.520 318.106,110.800 317.832,110.800 317.639 C 110.800 317.445,110.360 317.176,109.823 317.041 C 108.700 316.760,104.166 312.352,103.794 311.182 C 103.658 310.752,103.378 310.400,103.173 310.400 C 102.968 310.400,102.800 310.145,102.800 309.833 C 102.800 309.522,102.617 309.206,102.394 309.131 C 102.171 309.057,101.875 307.782,101.736 306.298 C 101.598 304.814,101.330 303.600,101.142 303.600 C 100.954 303.600,100.800 303.240,100.800 302.800 C 100.800 302.360,100.954 302.000,101.142 302.000 C 101.330 302.000,101.598 300.786,101.736 299.302 C 101.875 297.818,102.171 296.543,102.394 296.469 C 102.617 296.394,102.800 296.078,102.800 295.767 C 102.800 295.455,102.968 295.200,103.173 295.200 C 103.378 295.200,103.655 294.857,103.788 294.437 C 104.096 293.469,108.374 289.200,109.037 289.200 C 109.310 289.200,109.593 289.065,109.667 288.900 C 109.888 288.403,112.410 287.200,113.232 287.200 C 113.655 287.200,114.000 287.020,114.000 286.800 C 114.000 286.563,115.467 286.400,117.600 286.400 C 119.580 286.400,121.200 286.536,121.200 286.703 M326.800 286.800 C 326.800 287.020,327.340 287.200,328.000 287.200 C 328.660 287.200,329.200 287.366,329.200 287.568 C 329.200 287.771,329.740 288.055,330.400 288.200 C 331.060 288.345,331.600 288.617,331.600 288.805 C 331.600 288.993,331.981 289.267,332.447 289.415 C 333.457 289.735,336.690 293.022,337.021 294.065 C 337.149 294.469,337.422 294.800,337.627 294.800 C 337.832 294.800,338.001 295.025,338.002 295.300 C 338.004 295.575,338.311 296.340,338.685 297.000 C 339.664 298.727,339.664 306.873,338.685 308.600 C 338.311 309.260,338.004 310.025,338.002 310.300 C 338.001 310.575,337.859 310.800,337.686 310.800 C 337.514 310.800,337.040 311.364,336.633 312.052 C 335.636 313.740,333.018 316.237,331.575 316.875 C 330.929 317.161,330.400 317.529,330.400 317.693 C 330.400 317.857,329.680 318.106,328.800 318.246 C 327.920 318.387,327.200 318.659,327.200 318.851 C 327.200 319.043,325.490 319.200,323.400 319.200 C 321.310 319.200,319.600 319.043,319.600 318.851 C 319.600 318.659,318.880 318.387,318.000 318.246 C 317.120 318.106,316.400 317.813,316.400 317.595 C 316.400 317.378,316.130 317.200,315.800 317.200 C 315.470 317.200,315.200 317.020,315.200 316.800 C 315.200 316.580,314.966 316.400,314.679 316.400 C 313.040 316.400,308.000 309.628,308.000 307.426 C 308.000 307.082,307.820 306.800,307.600 306.800 C 307.362 306.800,307.200 305.275,307.200 303.024 C 307.200 300.937,307.379 299.137,307.600 299.000 C 307.820 298.864,308.000 298.468,308.000 298.120 C 308.000 296.700,309.850 293.519,311.800 291.584 C 313.949 289.453,314.261 289.200,314.734 289.200 C 314.990 289.200,315.200 289.034,315.200 288.832 C 315.200 288.629,315.738 288.345,316.395 288.201 C 317.053 288.057,317.694 287.772,317.819 287.569 C 317.945 287.366,318.397 287.200,318.824 287.200 C 319.251 287.200,319.600 287.020,319.600 286.800 C 319.600 286.563,321.067 286.400,323.200 286.400 C 325.333 286.400,326.800 286.563,326.800 286.800 " stroke="none" fill="#147c44" fill-rule="evenodd"></path></g></svg>