<svg id="svg" version="1.1" xmlns="http://www.w3.org/2000/svg" xmlns:xlink="http://www.w3.org/1999/xlink" width="400" height="400" viewBox="0, 0, 400,400"><g id="svgg"><path id="path0" d="M51.200 169.965 C 51.200 170.131,50.975 170.295,50.700 170.330 C 48.876 170.559,48.298 170.782,46.447 171.970 C 45.063 172.858,44.142 173.813,43.664 174.856 C 43.271 175.714,42.801 176.277,42.620 176.108 C 42.439 175.939,42.375 176.068,42.477 176.396 C 42.580 176.724,42.447 177.210,42.182 177.475 C 41.209 178.449,41.946 186.229,43.094 187.100 C 43.456 187.375,43.621 187.600,43.460 187.600 C 43.299 187.600,43.834 188.321,44.649 189.201 C 45.464 190.082,46.211 190.723,46.308 190.625 C 46.405 190.528,46.853 190.791,47.303 191.210 C 47.753 191.629,48.274 191.878,48.461 191.763 C 48.647 191.647,48.800 191.708,48.800 191.898 C 48.800 192.233,50.041 192.391,54.200 192.583 C 56.310 192.680,58.548 191.978,59.675 190.866 C 60.486 190.065,61.164 187.728,60.458 188.164 C 60.206 188.320,60.000 188.296,60.000 188.111 C 60.000 187.373,58.015 187.625,57.591 188.417 C 57.354 188.860,56.989 189.117,56.780 188.988 C 56.571 188.858,56.400 188.900,56.400 189.081 C 56.400 189.261,55.905 189.431,55.300 189.459 C 54.695 189.487,53.616 189.604,52.902 189.719 C 52.188 189.835,51.502 189.765,51.378 189.565 C 51.254 189.364,50.816 189.200,50.405 189.200 C 49.994 189.200,49.396 188.939,49.076 188.619 C 48.757 188.300,48.384 188.150,48.248 188.286 C 48.111 188.422,48.000 188.323,48.000 188.067 C 48.000 187.810,47.730 187.600,47.400 187.600 C 47.070 187.600,46.800 187.339,46.800 187.020 C 46.800 186.701,46.485 186.256,46.100 186.032 C 45.715 185.808,45.580 185.616,45.800 185.606 C 46.020 185.596,45.951 185.430,45.647 185.238 C 45.344 185.045,45.062 184.553,45.022 184.144 C 44.983 183.735,44.806 182.723,44.630 181.896 C 44.414 180.881,44.466 180.203,44.789 179.813 C 45.053 179.495,45.153 179.047,45.011 178.818 C 44.869 178.588,44.938 178.400,45.164 178.400 C 45.390 178.400,45.460 178.100,45.319 177.734 C 45.174 177.355,45.229 177.170,45.447 177.306 C 45.658 177.436,46.062 177.020,46.344 176.381 C 46.627 175.742,47.070 175.260,47.329 175.310 C 47.588 175.359,47.762 175.196,47.716 174.947 C 47.669 174.698,48.143 174.391,48.767 174.267 C 49.392 174.142,50.150 173.805,50.452 173.520 C 51.534 172.494,58.773 173.494,57.740 174.527 C 57.590 174.677,58.227 174.800,59.157 174.800 C 60.087 174.800,60.745 174.635,60.621 174.434 C 60.497 174.233,60.576 174.008,60.797 173.934 C 61.018 173.860,60.614 173.151,59.899 172.358 C 59.185 171.565,58.375 170.995,58.100 171.091 C 57.825 171.188,57.600 171.052,57.600 170.791 C 57.600 170.525,57.326 170.420,56.979 170.553 C 56.580 170.706,56.458 170.629,56.639 170.337 C 56.836 170.019,56.594 169.965,55.826 170.158 C 55.225 170.309,54.820 170.290,54.927 170.116 C 55.034 169.942,54.239 169.769,53.161 169.732 C 52.082 169.694,51.200 169.799,51.200 169.965 M149.200 170.028 C 149.200 170.233,148.784 170.400,148.276 170.400 C 147.769 170.400,147.004 170.664,146.576 170.987 C 146.149 171.310,145.520 171.580,145.178 171.587 C 144.310 171.605,141.477 174.278,141.790 174.784 C 141.932 175.013,141.895 175.200,141.710 175.200 C 141.189 175.200,139.922 177.551,140.201 178.001 C 140.336 178.220,140.305 178.625,140.131 178.900 C 139.569 179.788,139.659 183.749,140.262 184.711 C 140.576 185.213,140.738 185.777,140.621 185.966 C 140.504 186.155,140.677 186.532,141.004 186.804 C 141.332 187.076,141.600 187.546,141.600 187.849 C 141.600 188.152,141.870 188.400,142.200 188.400 C 142.530 188.400,142.800 188.658,142.800 188.973 C 142.800 189.288,143.160 189.660,143.600 189.800 C 144.040 189.940,144.400 190.322,144.400 190.651 C 144.400 190.979,144.580 191.136,144.800 191.000 C 145.020 190.864,145.200 190.973,145.200 191.243 C 145.200 191.513,145.305 191.629,145.433 191.501 C 145.561 191.373,146.326 191.550,147.133 191.895 C 149.072 192.724,153.092 192.888,154.507 192.196 C 155.273 191.821,155.530 191.800,155.342 192.127 C 155.193 192.387,155.518 192.193,156.065 191.696 C 156.612 191.199,157.181 190.914,157.330 191.063 C 157.478 191.212,157.600 191.123,157.600 190.867 C 157.600 190.610,157.762 190.445,157.960 190.500 C 158.158 190.555,158.353 190.420,158.394 190.200 C 158.435 189.980,158.655 189.575,158.883 189.300 C 159.175 188.948,159.158 188.800,158.825 188.800 C 158.565 188.800,158.464 188.620,158.600 188.400 C 158.736 188.180,158.612 187.998,158.324 187.995 C 158.036 187.992,157.367 187.873,156.837 187.732 C 156.163 187.551,155.960 187.612,156.161 187.937 C 156.331 188.212,156.194 188.400,155.824 188.400 C 155.481 188.400,155.200 188.561,155.200 188.757 C 155.200 188.954,154.921 189.222,154.579 189.353 C 154.192 189.501,154.060 189.427,154.227 189.156 C 154.380 188.908,154.088 188.949,153.548 189.251 C 152.577 189.794,149.600 190.049,149.600 189.589 C 149.600 189.448,149.375 189.318,149.100 189.299 C 147.247 189.171,144.800 187.537,144.800 186.428 C 144.800 186.246,144.442 185.851,144.004 185.549 C 143.506 185.205,143.177 184.477,143.124 183.600 C 143.077 182.830,142.850 182.070,142.619 181.912 C 142.333 181.716,142.358 181.369,142.700 180.818 C 142.975 180.374,143.200 179.580,143.200 179.054 C 143.200 178.528,143.472 177.872,143.805 177.596 C 144.138 177.319,144.363 176.806,144.305 176.456 C 144.247 176.105,144.470 175.814,144.800 175.809 C 145.130 175.804,145.400 175.547,145.400 175.238 C 145.400 174.929,145.742 174.626,146.160 174.565 C 146.578 174.503,147.056 174.232,147.223 173.962 C 147.390 173.693,147.948 173.426,148.463 173.369 C 148.978 173.313,149.400 173.236,149.400 173.198 C 149.400 173.160,150.343 173.075,151.496 173.009 C 152.879 172.930,153.504 173.032,153.333 173.308 C 153.170 173.572,153.393 173.643,153.937 173.500 C 154.412 173.376,154.800 173.438,154.800 173.637 C 154.800 173.837,154.935 173.971,155.100 173.936 C 155.612 173.828,156.805 174.469,156.627 174.757 C 156.534 174.907,156.890 175.066,157.418 175.110 C 159.721 175.300,158.949 172.204,156.500 171.430 C 156.005 171.274,155.600 170.959,155.600 170.730 C 155.600 170.502,155.330 170.418,155.000 170.545 C 154.670 170.671,154.400 170.631,154.400 170.454 C 154.400 170.092,154.228 170.057,151.300 169.824 C 150.145 169.732,149.200 169.824,149.200 170.028 M224.813 170.185 C 224.570 170.477,224.400 170.870,224.433 171.058 C 224.832 173.280,224.329 178.439,223.760 177.967 C 223.077 177.400,222.234 177.140,221.100 177.146 C 220.715 177.148,220.400 176.960,220.400 176.728 C 220.400 176.475,220.041 176.418,219.500 176.586 C 219.005 176.740,218.330 176.907,218.000 176.957 C 217.670 177.008,217.019 177.257,216.553 177.510 C 216.087 177.764,215.629 177.896,215.537 177.804 C 215.444 177.711,214.917 178.032,214.365 178.518 C 213.814 179.003,213.641 179.243,213.981 179.050 C 214.321 178.858,214.095 179.173,213.478 179.750 C 212.860 180.328,212.500 180.803,212.678 180.806 C 212.855 180.809,212.763 180.963,212.473 181.146 C 212.184 181.330,211.909 181.732,211.862 182.040 C 211.816 182.348,211.668 182.780,211.534 183.000 C 211.322 183.347,211.365 186.600,211.581 186.600 C 211.625 186.600,211.718 186.893,211.788 187.251 C 212.088 188.789,212.483 189.596,212.832 189.380 C 213.038 189.253,213.374 189.565,213.578 190.074 C 213.782 190.583,213.961 190.839,213.975 190.642 C 213.989 190.444,214.414 190.729,214.919 191.275 C 215.927 192.363,215.909 192.358,219.500 192.529 C 220.875 192.594,222.000 192.482,222.000 192.281 C 222.000 192.079,222.277 192.021,222.615 192.150 C 222.965 192.285,223.328 192.131,223.458 191.793 C 223.583 191.467,223.908 191.200,224.181 191.200 C 224.638 191.200,225.910 190.062,225.968 189.600 C 226.050 188.964,227.014 186.800,227.216 186.800 C 227.824 186.800,227.660 171.318,227.046 170.703 C 226.712 170.369,226.512 170.022,226.602 169.931 C 226.692 169.841,226.425 169.742,226.010 169.711 C 225.594 169.679,225.055 169.893,224.813 170.185 M258.156 170.071 C 258.061 170.225,257.627 170.282,257.192 170.198 C 256.756 170.115,256.400 170.246,256.400 170.490 C 256.400 170.734,256.282 170.815,256.137 170.670 C 255.992 170.525,255.597 170.630,255.260 170.903 C 254.774 171.297,254.708 171.297,254.944 170.905 C 255.146 170.568,255.043 170.485,254.623 170.646 C 254.283 170.777,254.093 171.026,254.200 171.200 C 254.405 171.531,253.240 172.181,252.670 172.054 C 252.489 172.013,252.455 172.165,252.594 172.390 C 252.733 172.616,252.702 172.804,252.524 172.809 C 252.346 172.814,251.750 173.189,251.200 173.644 C 250.650 174.098,250.470 174.348,250.800 174.200 C 251.130 174.052,250.950 174.302,250.400 174.756 C 249.850 175.211,249.569 175.586,249.776 175.591 C 249.984 175.596,249.845 175.825,249.468 176.101 C 249.092 176.376,248.742 177.186,248.692 177.900 C 248.641 178.614,248.472 179.199,248.315 179.199 C 248.158 179.200,248.118 180.055,248.227 181.100 C 248.336 182.145,248.421 183.405,248.417 183.900 C 248.412 184.395,248.598 184.800,248.828 184.800 C 249.059 184.800,249.144 184.968,249.017 185.172 C 248.891 185.377,248.982 185.665,249.221 185.813 C 249.459 185.960,249.564 186.318,249.453 186.607 C 249.341 186.897,249.509 187.233,249.825 187.354 C 250.141 187.476,250.400 187.823,250.400 188.125 C 250.400 188.428,250.791 189.019,251.269 189.438 C 251.812 189.914,252.008 189.975,251.792 189.600 C 251.495 189.084,251.540 189.076,252.119 189.545 C 252.489 189.845,252.693 190.250,252.572 190.445 C 252.451 190.640,252.734 190.800,253.200 190.800 C 253.666 190.800,253.936 190.980,253.800 191.200 C 253.664 191.420,253.833 191.623,254.176 191.650 C 254.519 191.678,254.980 191.745,255.200 191.800 C 255.420 191.855,255.881 191.923,256.224 191.950 C 256.567 191.978,256.764 192.135,256.662 192.300 C 256.560 192.465,257.899 192.613,259.638 192.630 C 261.377 192.646,262.800 192.517,262.800 192.342 C 262.800 192.168,263.070 192.129,263.400 192.255 C 263.730 192.382,264.000 192.286,264.000 192.043 C 264.000 191.799,264.135 191.629,264.300 191.665 C 265.735 191.974,268.121 189.406,267.050 188.706 C 266.788 188.535,266.767 188.393,267.000 188.366 C 267.220 188.341,266.950 188.191,266.400 188.032 C 265.417 187.749,264.460 188.073,263.125 189.139 C 262.754 189.436,262.259 189.560,262.025 189.416 C 261.791 189.271,261.600 189.315,261.600 189.512 C 261.600 189.801,258.069 189.859,257.700 189.576 C 257.645 189.534,257.465 189.462,257.300 189.415 C 255.421 188.886,252.000 185.656,252.000 184.412 C 252.000 183.939,251.853 183.644,251.672 183.755 C 251.492 183.867,251.402 182.932,251.472 181.679 C 251.665 178.216,251.768 177.657,252.168 177.904 C 252.370 178.029,252.423 177.837,252.285 177.478 C 252.148 177.119,252.235 176.702,252.479 176.551 C 252.765 176.374,252.818 176.477,252.627 176.838 C 252.464 177.147,252.692 176.955,253.134 176.411 C 253.576 175.867,253.834 175.255,253.707 175.049 C 253.580 174.844,253.684 174.805,253.938 174.962 C 254.192 175.119,254.400 175.057,254.400 174.824 C 254.400 174.591,254.661 174.400,254.980 174.400 C 255.299 174.400,255.727 174.102,255.931 173.738 C 256.160 173.329,256.557 173.175,256.971 173.334 C 257.340 173.475,257.547 173.438,257.432 173.252 C 257.317 173.065,258.297 172.933,259.610 172.956 C 260.924 172.980,261.999 173.165,261.999 173.367 C 262.000 173.568,262.120 173.613,262.268 173.466 C 262.415 173.319,262.896 173.514,263.336 173.899 C 263.777 174.285,263.995 174.357,263.820 174.060 C 263.563 173.622,263.665 173.607,264.363 173.980 C 264.836 174.233,265.132 174.586,265.022 174.764 C 264.752 175.201,266.805 174.955,267.265 174.495 C 267.893 173.867,266.939 172.122,265.813 171.839 C 265.238 171.695,264.867 171.415,264.989 171.217 C 265.205 170.868,264.652 170.604,262.732 170.142 C 261.317 169.801,258.351 169.755,258.156 170.071 M348.950 170.081 C 348.598 170.651,348.572 192.000,348.924 192.000 C 349.102 192.000,349.150 192.158,349.031 192.350 C 348.912 192.543,349.798 192.700,351.000 192.700 C 353.378 192.700,354.458 192.034,353.652 191.063 C 353.407 190.768,353.340 190.379,353.503 190.199 C 353.667 190.019,353.587 189.994,353.328 190.142 C 353.068 190.291,352.747 190.238,352.615 190.024 C 352.483 189.810,352.155 189.719,351.887 189.822 C 351.512 189.965,351.400 187.724,351.400 180.104 C 351.400 172.394,351.289 170.222,350.900 170.300 C 350.625 170.355,350.400 170.250,350.400 170.067 C 350.400 169.625,349.224 169.637,348.950 170.081 M307.609 170.386 C 307.153 170.674,307.047 171.450,307.145 173.780 L 307.271 176.800 306.212 176.800 C 305.608 176.800,305.259 176.972,305.400 177.200 C 305.536 177.420,305.473 177.600,305.259 177.600 C 304.845 177.600,304.887 178.155,305.387 179.312 C 305.591 179.783,305.949 179.943,306.447 179.785 C 307.155 179.560,307.200 179.828,307.200 184.293 C 307.200 187.537,307.358 189.211,307.700 189.579 C 308.103 190.013,308.095 190.058,307.660 189.810 C 307.224 189.562,307.207 189.666,307.574 190.352 C 307.824 190.818,308.189 191.200,308.386 191.200 C 308.582 191.200,309.018 191.476,309.355 191.812 C 310.228 192.686,313.728 193.009,314.339 192.273 C 314.844 191.665,314.570 190.400,313.934 190.400 C 313.724 190.400,313.650 190.242,313.769 190.050 C 313.889 189.857,313.429 189.746,312.748 189.804 C 310.481 189.997,310.057 189.078,310.133 184.133 L 310.200 179.800 311.248 179.780 C 314.658 179.717,314.094 176.571,310.647 176.431 C 309.963 176.403,309.912 176.131,310.086 173.414 C 310.192 171.772,310.138 170.515,309.967 170.621 C 309.795 170.726,309.542 170.630,309.404 170.407 C 309.093 169.903,308.386 169.895,307.609 170.386 M98.974 172.442 C 98.848 172.646,98.596 172.721,98.414 172.609 C 98.233 172.496,97.975 172.688,97.842 173.035 C 97.515 173.887,97.535 174.999,97.870 174.663 C 98.019 174.514,98.543 174.771,99.034 175.232 L 99.928 176.072 100.764 175.236 C 101.952 174.048,101.819 173.058,100.402 172.523 C 99.683 172.252,99.112 172.219,98.974 172.442 M206.591 172.413 C 206.156 172.571,205.697 172.642,205.572 172.571 C 205.447 172.500,205.355 173.062,205.368 173.821 C 205.382 174.652,205.592 175.200,205.895 175.200 C 206.173 175.200,206.400 175.386,206.400 175.614 C 206.400 175.894,206.641 175.899,207.147 175.628 C 207.558 175.408,208.008 175.342,208.147 175.481 C 208.286 175.620,208.423 175.433,208.450 175.067 C 208.478 174.700,208.523 174.162,208.550 173.871 C 208.635 172.974,207.459 172.098,206.591 172.413 M69.801 176.802 C 69.919 176.993,69.548 177.065,68.976 176.961 C 68.322 176.843,68.031 176.926,68.192 177.186 C 68.336 177.420,68.089 177.600,67.624 177.600 C 67.171 177.600,66.800 177.791,66.800 178.024 C 66.800 178.257,66.619 178.335,66.397 178.198 C 66.176 178.061,65.886 178.231,65.754 178.575 C 65.622 178.919,65.286 179.200,65.007 179.200 C 64.438 179.200,63.148 181.592,63.452 182.084 C 63.559 182.258,63.475 182.400,63.265 182.400 C 62.857 182.400,62.958 187.008,63.397 188.392 C 63.540 188.843,63.819 189.112,64.017 188.989 C 64.215 188.867,64.490 189.220,64.629 189.772 C 64.796 190.438,65.334 190.941,66.219 191.261 C 66.955 191.528,67.466 191.893,67.355 192.073 C 67.244 192.253,67.388 192.425,67.676 192.456 C 69.016 192.600,73.523 192.589,73.377 192.443 C 73.286 192.353,73.686 192.033,74.266 191.732 C 74.845 191.432,75.411 191.278,75.524 191.390 C 75.636 191.503,75.925 191.212,76.164 190.743 C 76.404 190.273,76.751 189.927,76.936 189.972 C 77.374 190.078,78.384 188.697,78.148 188.316 C 78.048 188.154,78.225 187.613,78.540 187.111 C 79.542 185.517,78.570 180.000,77.287 180.000 C 76.946 180.000,76.783 179.883,76.926 179.741 C 77.258 179.408,75.650 178.000,74.939 178.000 C 74.642 178.000,74.400 177.820,74.400 177.600 C 74.400 177.380,73.961 177.200,73.424 177.200 C 72.887 177.200,72.353 177.048,72.238 176.861 C 72.123 176.675,71.479 176.507,70.807 176.488 C 70.135 176.469,69.683 176.610,69.801 176.802 M89.494 176.640 C 89.377 176.756,88.717 176.867,88.027 176.887 C 87.336 176.906,86.677 177.075,86.562 177.261 C 86.447 177.448,86.003 177.600,85.576 177.600 C 85.149 177.600,84.800 177.784,84.800 178.010 C 84.800 178.235,84.350 178.591,83.800 178.800 C 83.213 179.023,82.800 179.497,82.800 179.947 C 82.800 180.369,82.511 180.825,82.158 180.961 C 81.792 181.101,81.615 181.463,81.746 181.803 C 81.872 182.132,81.789 182.400,81.562 182.400 C 81.308 182.400,81.193 183.393,81.263 184.968 C 81.330 186.454,81.538 187.438,81.757 187.303 C 81.967 187.173,82.027 187.352,81.892 187.705 C 81.757 188.055,81.907 188.557,82.224 188.820 C 82.541 189.083,82.800 189.546,82.800 189.849 C 82.800 190.152,83.004 190.400,83.254 190.400 C 83.504 190.400,84.135 190.860,84.656 191.423 C 85.177 191.985,85.791 192.329,86.019 192.188 C 86.248 192.047,86.655 192.114,86.925 192.337 C 87.883 193.133,93.600 192.444,93.600 191.534 C 93.600 191.324,93.780 191.264,94.000 191.400 C 94.220 191.536,94.400 191.367,94.400 191.024 C 94.400 190.681,94.563 190.400,94.763 190.400 C 95.208 190.400,94.816 188.696,94.291 188.349 C 93.784 188.014,92.400 188.395,92.400 188.870 C 92.400 189.078,92.220 189.136,92.000 189.000 C 91.780 188.864,91.600 188.938,91.600 189.164 C 91.600 189.390,91.330 189.471,91.000 189.345 C 90.670 189.218,90.400 189.301,90.400 189.530 C 90.400 189.758,89.905 189.880,89.300 189.800 C 88.695 189.720,88.200 189.628,88.200 189.594 C 88.200 189.561,87.765 189.486,87.233 189.429 C 86.171 189.314,84.252 187.363,84.618 186.771 C 84.744 186.567,84.670 186.400,84.454 186.400 C 83.980 186.400,84.154 184.228,84.751 182.700 C 84.987 182.095,85.375 181.600,85.614 181.600 C 85.852 181.600,85.936 181.420,85.800 181.200 C 85.664 180.980,85.821 180.800,86.148 180.800 C 86.475 180.800,86.981 180.565,87.271 180.277 C 88.001 179.555,90.560 179.663,91.459 180.453 C 92.626 181.480,93.866 181.726,94.150 180.987 C 94.284 180.636,94.576 180.461,94.797 180.598 C 95.030 180.742,95.200 180.387,95.200 179.757 C 95.200 179.157,95.083 178.783,94.941 178.926 C 94.798 179.069,94.348 178.801,93.941 178.332 C 93.533 177.862,93.200 177.616,93.200 177.785 C 93.200 177.954,92.750 177.797,92.200 177.437 C 91.650 177.076,91.200 176.882,91.200 177.005 C 91.200 177.128,90.864 177.048,90.453 176.828 C 90.042 176.608,89.610 176.523,89.494 176.640 M111.200 176.800 C 110.891 176.991,110.487 177.054,110.302 176.939 C 110.116 176.825,109.668 176.972,109.306 177.266 C 108.743 177.722,108.696 177.712,108.988 177.200 C 109.175 176.870,108.883 177.005,108.339 177.500 C 107.155 178.576,106.724 178.640,106.882 177.718 C 106.971 177.202,106.687 177.021,105.712 176.976 C 105.004 176.942,104.519 177.069,104.636 177.258 C 104.752 177.446,104.657 177.600,104.424 177.600 C 103.855 177.600,103.838 191.453,104.407 191.804 C 104.630 191.942,104.707 192.227,104.578 192.436 C 104.444 192.652,104.870 192.777,105.561 192.724 C 107.122 192.605,107.259 192.183,107.169 187.757 C 107.129 185.742,107.220 183.892,107.371 183.646 C 107.523 183.401,107.536 183.020,107.400 182.800 C 107.264 182.580,107.343 182.400,107.576 182.400 C 107.809 182.400,107.955 182.187,107.900 181.927 C 107.845 181.666,108.295 181.207,108.900 180.905 C 109.505 180.603,110.000 180.207,110.000 180.025 C 110.000 179.648,112.280 179.747,112.675 180.142 C 112.817 180.284,113.263 180.400,113.667 180.400 C 114.070 180.400,114.400 180.591,114.400 180.824 C 114.400 181.057,114.580 181.136,114.800 181.000 C 115.020 180.864,115.200 181.033,115.200 181.376 C 115.200 181.719,115.391 182.000,115.625 182.000 C 115.859 182.000,116.018 182.315,115.979 182.700 C 115.940 183.085,115.939 183.580,115.978 183.800 C 116.017 184.020,116.027 186.062,116.001 188.338 C 115.969 191.154,116.089 192.392,116.377 192.214 C 116.610 192.070,116.800 192.107,116.800 192.295 C 116.800 192.483,117.295 192.629,117.900 192.619 L 119.000 192.600 119.059 187.300 C 119.094 184.151,118.963 182.000,118.736 182.000 C 118.525 182.000,118.464 181.820,118.600 181.600 C 118.736 181.380,118.627 181.200,118.357 181.200 C 118.087 181.200,117.980 181.086,118.119 180.947 C 118.515 180.552,117.638 179.200,116.986 179.200 C 116.664 179.200,116.445 179.006,116.500 178.768 C 116.555 178.530,116.158 178.035,115.617 177.668 C 115.076 177.301,114.771 177.223,114.938 177.495 C 115.145 177.833,115.044 177.915,114.621 177.753 C 114.279 177.622,114.000 177.342,114.000 177.132 C 114.000 176.922,113.685 176.802,113.300 176.865 C 112.915 176.928,112.411 176.861,112.181 176.716 C 111.950 176.571,111.509 176.609,111.200 176.800 M129.066 176.667 C 128.920 176.814,128.485 176.960,128.100 176.991 C 127.715 177.023,127.019 177.257,126.553 177.510 C 126.087 177.764,125.629 177.896,125.537 177.804 C 125.444 177.711,124.917 178.032,124.365 178.518 C 123.814 179.003,123.641 179.243,123.981 179.050 C 124.321 178.858,124.095 179.173,123.478 179.750 C 122.860 180.328,122.500 180.803,122.678 180.806 C 122.855 180.809,122.763 180.963,122.473 181.146 C 122.184 181.330,121.909 181.732,121.862 182.040 C 121.816 182.348,121.668 182.780,121.534 183.000 C 121.311 183.365,121.367 186.466,121.600 186.700 C 121.655 186.755,121.729 186.935,121.765 187.100 C 122.144 188.838,122.489 189.592,122.815 189.391 C 123.031 189.258,123.374 189.565,123.578 190.074 C 123.782 190.583,123.961 190.839,123.975 190.642 C 123.989 190.444,124.414 190.729,124.919 191.275 C 125.425 191.820,126.100 192.294,126.419 192.328 C 129.721 192.676,131.476 192.669,132.354 192.305 C 132.929 192.066,133.535 191.900,133.700 191.935 C 133.865 191.971,134.000 191.730,134.000 191.400 C 134.000 191.070,134.163 190.800,134.363 190.800 C 134.562 190.800,134.624 191.188,134.500 191.663 C 134.345 192.254,134.420 192.435,134.737 192.239 C 134.992 192.082,135.200 192.118,135.200 192.321 C 135.200 193.144,137.142 192.284,137.375 191.358 C 137.743 189.892,137.568 182.427,137.159 182.175 C 136.962 182.053,136.794 181.648,136.787 181.276 C 136.768 180.232,135.079 178.553,133.460 177.967 C 132.657 177.677,132.000 177.274,132.000 177.073 C 132.000 176.872,131.640 176.801,131.200 176.916 C 130.760 177.031,130.400 176.962,130.400 176.763 C 130.400 176.342,129.459 176.274,129.066 176.667 M167.819 176.714 C 167.682 176.851,167.082 177.029,166.486 177.109 C 165.889 177.189,165.257 177.512,165.081 177.827 C 164.905 178.142,164.589 178.400,164.380 178.400 C 164.171 178.400,163.640 178.760,163.200 179.200 C 162.760 179.640,162.497 180.000,162.616 180.000 C 162.734 180.000,162.477 180.380,162.045 180.844 C 161.613 181.308,161.355 181.938,161.472 182.244 C 161.590 182.550,161.506 182.800,161.287 182.800 C 161.068 182.800,160.909 183.700,160.933 184.800 C 160.957 185.900,161.111 186.800,161.276 186.800 C 161.440 186.800,161.474 187.063,161.350 187.385 C 161.221 187.722,161.608 188.428,162.263 189.050 C 162.888 189.645,163.130 189.983,162.800 189.802 C 162.470 189.622,162.650 189.919,163.200 190.464 C 163.750 191.008,164.316 191.398,164.458 191.329 C 164.600 191.261,164.824 191.485,164.955 191.828 C 165.087 192.170,165.363 192.346,165.570 192.219 C 165.776 192.091,166.052 192.161,166.183 192.373 C 166.315 192.587,167.531 192.678,168.911 192.578 C 172.298 192.332,172.400 192.313,172.400 191.933 C 172.400 191.750,172.676 191.600,173.013 191.600 C 173.349 191.600,173.728 191.331,173.854 191.002 C 173.981 190.674,174.257 190.512,174.469 190.643 C 174.681 190.773,174.953 190.502,175.074 190.040 C 175.194 189.578,175.463 189.200,175.670 189.200 C 175.878 189.200,175.935 189.019,175.798 188.797 C 175.661 188.576,175.818 188.291,176.147 188.165 C 176.476 188.039,176.747 187.635,176.749 187.268 C 176.751 186.900,176.840 185.927,176.946 185.105 C 177.052 184.282,176.965 183.502,176.753 183.371 C 176.541 183.240,176.477 182.788,176.611 182.366 C 176.747 181.938,176.666 181.600,176.427 181.600 C 176.192 181.600,176.000 181.330,176.000 181.000 C 176.000 180.670,175.820 180.400,175.600 180.400 C 175.380 180.400,175.245 180.253,175.300 180.074 C 175.464 179.540,172.652 177.171,172.104 177.381 C 171.827 177.488,171.600 177.439,171.600 177.273 C 171.600 177.106,171.285 176.945,170.900 176.914 C 170.515 176.884,169.720 176.770,169.134 176.662 C 168.548 176.554,167.956 176.577,167.819 176.714 M180.400 176.751 C 180.400 176.998,180.175 177.155,179.900 177.100 C 179.137 176.947,178.945 191.402,179.699 192.156 C 181.391 193.848,182.194 192.811,182.300 188.800 C 182.475 182.122,182.703 180.911,183.840 180.626 C 184.386 180.489,184.742 180.230,184.631 180.051 C 184.521 179.872,185.056 179.763,185.820 179.809 C 187.263 179.897,189.435 181.695,188.983 182.428 C 188.856 182.632,188.954 182.800,189.201 182.800 C 189.512 182.800,189.611 184.185,189.524 187.350 C 189.399 191.942,189.569 192.605,190.872 192.595 C 191.972 192.587,192.035 192.305,192.069 187.210 C 192.102 182.337,192.105 182.320,193.303 181.094 C 194.469 179.902,196.800 179.260,196.800 180.131 C 196.800 180.352,196.911 180.422,197.048 180.286 C 197.364 179.969,198.156 180.767,198.550 181.800 C 198.718 182.240,198.855 184.711,198.853 187.292 C 198.850 192.141,198.937 192.398,200.629 192.583 C 201.352 192.663,201.662 192.468,201.800 191.846 C 202.067 190.644,202.241 182.798,202.000 182.798 C 201.890 182.798,201.763 182.264,201.717 181.611 C 201.632 180.389,200.455 178.212,200.082 178.585 C 199.966 178.700,199.618 178.433,199.309 177.991 C 198.999 177.548,198.593 177.281,198.407 177.396 C 198.221 177.511,198.008 177.430,197.934 177.217 C 197.753 176.695,194.800 176.352,194.800 176.854 C 194.800 177.070,194.652 177.156,194.471 177.044 C 194.291 176.932,193.706 177.068,193.171 177.345 C 192.637 177.622,192.020 177.928,191.800 178.024 C 191.580 178.121,191.446 178.339,191.503 178.510 C 191.560 178.680,190.840 178.415,189.903 177.921 C 188.132 176.987,187.613 176.863,185.079 176.764 C 184.014 176.723,183.386 176.929,182.986 177.453 C 182.632 177.916,182.298 178.048,182.108 177.800 C 181.452 176.947,180.400 176.301,180.400 176.751 M206.191 177.074 C 205.443 177.761,205.411 178.200,205.600 185.195 C 205.815 193.133,206.019 193.770,207.822 192.114 C 208.639 191.364,209.070 177.999,208.276 178.000 C 208.098 178.000,208.064 177.820,208.200 177.600 C 208.336 177.380,208.182 177.200,207.857 177.200 C 207.532 177.200,207.203 177.008,207.125 176.774 C 207.041 176.524,206.655 176.648,206.191 177.074 M237.466 176.667 C 237.320 176.814,236.885 176.960,236.500 176.991 C 236.115 177.023,235.419 177.257,234.953 177.510 C 234.487 177.764,234.029 177.896,233.937 177.804 C 233.844 177.711,233.317 178.032,232.765 178.518 C 232.214 179.003,232.041 179.243,232.381 179.050 C 232.721 178.858,232.495 179.173,231.878 179.750 C 231.260 180.328,230.900 180.803,231.078 180.806 C 231.255 180.809,231.163 180.963,230.873 181.146 C 230.584 181.330,230.309 181.732,230.262 182.040 C 230.216 182.348,230.068 182.780,229.934 183.000 C 229.711 183.365,229.767 186.466,230.000 186.700 C 230.055 186.755,230.129 186.935,230.165 187.100 C 230.544 188.838,230.889 189.592,231.215 189.391 C 231.431 189.258,231.774 189.565,231.978 190.074 C 232.182 190.583,232.361 190.839,232.375 190.642 C 232.389 190.444,232.814 190.729,233.319 191.275 C 233.825 191.820,234.500 192.294,234.819 192.328 C 238.121 192.676,239.876 192.669,240.754 192.305 C 241.329 192.066,241.935 191.900,242.100 191.935 C 242.265 191.971,242.400 191.730,242.400 191.400 C 242.400 191.070,242.563 190.800,242.763 190.800 C 242.962 190.800,243.024 191.188,242.900 191.663 C 242.745 192.254,242.820 192.435,243.137 192.239 C 243.392 192.082,243.600 192.118,243.600 192.321 C 243.600 193.144,245.542 192.284,245.775 191.358 C 246.143 189.892,245.968 182.427,245.559 182.175 C 245.362 182.053,245.194 181.648,245.187 181.276 C 245.168 180.232,243.479 178.553,241.860 177.967 C 241.057 177.677,240.400 177.274,240.400 177.073 C 240.400 176.872,240.040 176.801,239.600 176.916 C 239.160 177.031,238.800 176.962,238.800 176.763 C 238.800 176.342,237.859 176.274,237.466 176.667 M277.066 176.667 C 276.920 176.814,276.485 176.960,276.100 176.991 C 275.715 177.023,275.019 177.257,274.553 177.510 C 274.087 177.764,273.629 177.896,273.537 177.804 C 273.444 177.711,272.917 178.032,272.365 178.518 C 271.814 179.003,271.641 179.243,271.981 179.050 C 272.321 178.858,272.095 179.173,271.478 179.750 C 270.860 180.328,270.500 180.803,270.678 180.806 C 270.855 180.809,270.763 180.963,270.473 181.146 C 270.184 181.330,269.909 181.732,269.862 182.040 C 269.816 182.348,269.668 182.780,269.534 183.000 C 269.311 183.365,269.367 186.466,269.600 186.700 C 269.655 186.755,269.729 186.935,269.765 187.100 C 270.144 188.838,270.489 189.592,270.815 189.391 C 271.031 189.258,271.374 189.565,271.578 190.074 C 271.782 190.583,271.961 190.839,271.975 190.642 C 271.989 190.444,272.414 190.729,272.919 191.275 C 273.927 192.363,273.909 192.358,277.500 192.529 C 278.875 192.594,280.000 192.482,280.000 192.281 C 280.000 192.079,280.277 192.021,280.615 192.150 C 280.965 192.285,281.328 192.131,281.458 191.793 C 281.583 191.467,281.908 191.200,282.181 191.200 C 282.638 191.200,283.910 190.062,283.968 189.600 C 284.044 189.011,285.006 186.800,285.188 186.800 C 285.567 186.800,285.296 182.229,284.856 181.200 C 284.172 179.602,283.071 178.550,281.480 177.975 C 280.666 177.680,280.000 177.274,280.000 177.073 C 280.000 176.872,279.640 176.801,279.200 176.916 C 278.760 177.031,278.400 176.962,278.400 176.763 C 278.400 176.342,277.459 176.274,277.066 176.667 M294.800 176.800 C 294.491 176.991,294.087 177.054,293.902 176.939 C 293.716 176.825,293.268 176.972,292.906 177.266 C 292.343 177.722,292.296 177.712,292.588 177.200 C 292.775 176.870,292.483 177.005,291.939 177.500 C 290.755 178.576,290.324 178.640,290.482 177.718 C 290.571 177.202,290.287 177.021,289.312 176.976 C 288.604 176.942,288.119 177.069,288.236 177.258 C 288.352 177.446,288.257 177.600,288.024 177.600 C 287.455 177.600,287.438 191.453,288.007 191.804 C 288.230 191.942,288.307 192.227,288.178 192.436 C 288.044 192.652,288.470 192.777,289.161 192.724 C 290.722 192.605,290.859 192.183,290.769 187.757 C 290.729 185.742,290.820 183.892,290.971 183.646 C 291.123 183.401,291.136 183.020,291.000 182.800 C 290.864 182.580,290.943 182.400,291.176 182.400 C 291.409 182.400,291.555 182.187,291.500 181.927 C 291.445 181.666,291.895 181.207,292.500 180.905 C 293.105 180.603,293.600 180.207,293.600 180.025 C 293.600 179.648,295.880 179.747,296.275 180.142 C 296.417 180.284,296.863 180.400,297.267 180.400 C 297.670 180.400,298.000 180.591,298.000 180.824 C 298.000 181.057,298.180 181.136,298.400 181.000 C 298.620 180.864,298.800 181.033,298.800 181.376 C 298.800 181.719,298.991 182.000,299.225 182.000 C 299.459 182.000,299.618 182.315,299.579 182.700 C 299.540 183.085,299.539 183.580,299.578 183.800 C 299.617 184.020,299.627 186.062,299.601 188.338 C 299.569 191.154,299.689 192.392,299.977 192.214 C 300.210 192.070,300.400 192.107,300.400 192.295 C 300.400 192.483,300.895 192.629,301.500 192.619 L 302.600 192.600 302.659 187.300 C 302.694 184.151,302.563 182.000,302.336 182.000 C 302.125 182.000,302.064 181.820,302.200 181.600 C 302.336 181.380,302.227 181.200,301.957 181.200 C 301.687 181.200,301.580 181.086,301.719 180.947 C 302.115 180.552,301.238 179.200,300.586 179.200 C 300.264 179.200,300.045 179.006,300.100 178.768 C 300.155 178.530,299.758 178.035,299.217 177.668 C 298.676 177.301,298.371 177.223,298.538 177.495 C 298.745 177.833,298.644 177.915,298.221 177.753 C 297.879 177.622,297.600 177.342,297.600 177.132 C 297.600 176.922,297.285 176.802,296.900 176.865 C 296.515 176.928,296.011 176.861,295.781 176.716 C 295.550 176.571,295.109 176.609,294.800 176.800 M323.745 176.889 C 323.638 177.062,323.112 177.093,322.575 176.958 C 322.039 176.823,321.600 176.874,321.600 177.070 C 321.600 177.267,321.033 177.762,320.341 178.171 C 319.648 178.580,319.182 178.752,319.305 178.553 C 319.428 178.354,319.298 177.876,319.016 177.490 C 318.460 176.729,316.527 176.783,316.700 177.555 C 316.755 177.800,316.620 178.000,316.400 178.000 C 315.613 178.000,315.893 190.815,316.700 191.737 C 317.205 192.314,317.233 192.445,316.800 192.205 C 316.450 192.010,316.336 192.021,316.528 192.230 C 317.048 192.799,319.131 192.758,319.355 192.174 C 319.467 191.882,319.523 189.761,319.479 187.459 C 319.432 184.993,319.551 183.369,319.768 183.503 C 319.970 183.629,320.021 183.432,319.881 183.066 C 319.740 182.700,319.810 182.400,320.036 182.400 C 320.262 182.400,320.370 182.265,320.275 182.100 C 320.180 181.935,320.467 181.440,320.913 181.000 C 321.379 180.539,321.600 180.454,321.432 180.800 C 321.245 181.185,321.343 181.154,321.704 180.714 C 322.163 180.156,322.805 180.052,325.134 180.159 C 327.407 180.263,328.000 180.173,328.000 179.722 C 328.000 179.409,328.149 179.245,328.332 179.358 C 328.853 179.680,328.612 178.137,328.031 177.437 C 327.693 177.030,327.172 176.892,326.554 177.047 C 326.004 177.185,325.600 177.110,325.600 176.868 C 325.600 176.392,324.041 176.410,323.745 176.889 M337.866 176.667 C 337.720 176.814,337.285 176.960,336.900 176.991 C 336.515 177.023,335.819 177.257,335.353 177.510 C 334.887 177.764,334.429 177.896,334.337 177.804 C 334.244 177.711,333.717 178.032,333.165 178.518 C 332.614 179.003,332.441 179.243,332.781 179.050 C 333.121 178.858,332.895 179.173,332.278 179.750 C 331.660 180.328,331.300 180.803,331.478 180.806 C 331.655 180.809,331.563 180.963,331.273 181.146 C 330.984 181.330,330.709 181.732,330.662 182.040 C 330.616 182.348,330.468 182.780,330.334 183.000 C 330.111 183.365,330.167 186.466,330.400 186.700 C 330.455 186.755,330.529 186.935,330.565 187.100 C 330.944 188.838,331.289 189.592,331.615 189.391 C 331.831 189.258,332.174 189.565,332.378 190.074 C 332.582 190.583,332.761 190.839,332.775 190.642 C 332.789 190.444,333.214 190.729,333.719 191.275 C 334.727 192.363,334.709 192.358,338.300 192.529 C 339.675 192.594,340.800 192.482,340.800 192.281 C 340.800 192.079,341.077 192.021,341.415 192.150 C 341.765 192.285,342.128 192.131,342.258 191.793 C 342.383 191.467,342.708 191.200,342.981 191.200 C 343.438 191.200,344.710 190.062,344.768 189.600 C 344.844 189.011,345.806 186.800,345.988 186.800 C 346.367 186.800,346.096 182.229,345.656 181.200 C 344.972 179.602,343.871 178.550,342.280 177.975 C 341.466 177.680,340.800 177.274,340.800 177.073 C 340.800 176.872,340.440 176.801,340.000 176.916 C 339.560 177.031,339.200 176.962,339.200 176.763 C 339.200 176.342,338.259 176.274,337.866 176.667 M98.800 177.210 C 98.800 177.450,98.665 177.564,98.500 177.462 C 98.335 177.360,98.234 180.718,98.277 184.925 L 98.353 192.573 99.577 192.603 L 100.800 192.632 100.860 185.316 C 100.893 181.292,100.938 177.790,100.960 177.534 C 100.982 177.277,100.505 177.001,99.900 176.920 C 99.281 176.837,98.800 176.964,98.800 177.210 M72.400 180.122 C 72.400 180.322,72.649 180.390,72.954 180.273 C 73.507 180.061,75.472 181.931,75.294 182.500 C 75.242 182.665,75.381 182.800,75.603 182.800 C 75.829 182.800,75.961 183.590,75.903 184.600 C 75.846 185.590,75.665 186.400,75.500 186.400 C 75.335 186.400,75.200 186.662,75.200 186.982 C 75.200 187.751,73.252 189.680,72.774 189.384 C 72.568 189.257,72.400 189.333,72.400 189.554 C 72.400 190.119,69.831 189.889,69.068 189.257 C 68.720 188.968,68.260 188.840,68.045 188.972 C 67.831 189.105,67.525 189.002,67.366 188.745 C 67.173 188.433,67.251 188.384,67.600 188.600 C 67.946 188.814,68.027 188.767,67.838 188.462 C 67.681 188.208,67.293 188.000,66.976 188.000 C 66.659 188.000,66.400 187.651,66.400 187.224 C 66.400 186.797,66.237 186.347,66.038 186.224 C 65.441 185.854,65.878 182.700,66.580 182.307 C 66.930 182.111,67.095 181.754,66.947 181.514 C 66.798 181.273,66.851 181.185,67.065 181.317 C 67.279 181.449,67.695 181.223,67.989 180.815 C 68.283 180.407,68.766 180.166,69.062 180.279 C 69.358 180.393,69.600 180.304,69.600 180.082 C 69.600 179.861,70.230 179.697,71.000 179.719 C 71.770 179.741,72.400 179.922,72.400 180.122 M130.515 180.154 C 131.529 180.459,132.432 180.635,132.522 180.545 C 132.801 180.266,133.621 181.470,133.806 182.430 C 133.902 182.931,134.128 183.444,134.308 183.571 C 134.754 183.884,134.884 186.099,134.440 185.825 C 134.149 185.645,133.571 186.931,133.433 188.067 C 133.415 188.213,133.236 188.483,133.036 188.667 C 132.822 188.863,132.795 188.753,132.971 188.400 C 133.135 188.070,132.898 188.250,132.444 188.800 C 131.989 189.350,131.614 189.643,131.609 189.451 C 131.604 189.259,131.375 189.271,131.100 189.478 C 130.397 190.008,128.400 190.077,128.400 189.572 C 128.400 189.341,128.235 189.255,128.032 189.380 C 127.830 189.505,127.393 189.336,127.061 189.004 C 126.729 188.672,126.284 188.400,126.072 188.400 C 125.860 188.400,125.572 187.943,125.432 187.384 C 125.291 186.825,125.023 186.462,124.836 186.577 C 124.582 186.734,124.519 183.939,124.762 183.300 C 124.783 183.245,124.755 183.129,124.700 183.042 C 124.645 182.955,124.943 182.505,125.362 182.042 C 125.781 181.579,125.961 181.191,125.762 181.181 C 125.428 181.163,127.902 179.741,128.436 179.643 C 128.566 179.619,129.502 179.850,130.515 180.154 M170.573 180.044 C 170.480 180.194,170.683 180.423,171.023 180.554 C 171.430 180.709,171.556 180.621,171.391 180.295 C 171.253 180.023,171.397 180.112,171.710 180.494 C 172.023 180.875,172.358 181.109,172.455 181.012 C 172.551 180.915,172.862 181.207,173.145 181.660 C 173.568 182.339,173.566 182.428,173.130 182.165 C 172.729 181.924,172.736 182.015,173.161 182.538 C 173.833 183.365,174.121 186.922,173.485 186.529 C 173.243 186.379,173.145 186.509,173.255 186.834 C 173.360 187.145,173.002 187.850,172.460 188.400 C 171.917 188.950,171.623 189.130,171.806 188.800 C 172.013 188.426,171.806 188.491,171.255 188.974 C 170.346 189.772,168.122 190.121,167.753 189.524 C 167.638 189.339,167.364 189.298,167.144 189.434 C 166.701 189.709,163.975 186.846,164.068 186.204 C 164.100 185.982,163.997 185.506,163.839 185.148 C 163.485 184.346,165.080 180.800,165.795 180.800 C 166.074 180.800,166.494 180.569,166.729 180.286 C 167.158 179.769,170.888 179.534,170.573 180.044 M220.515 180.154 C 221.529 180.459,222.432 180.635,222.522 180.545 C 222.801 180.266,223.621 181.470,223.806 182.430 C 223.902 182.931,224.128 183.444,224.308 183.571 C 224.754 183.884,224.884 186.099,224.440 185.825 C 224.149 185.645,223.571 186.931,223.433 188.067 C 223.415 188.213,223.236 188.483,223.036 188.667 C 222.822 188.863,222.795 188.753,222.971 188.400 C 223.135 188.070,222.898 188.250,222.444 188.800 C 221.989 189.350,221.614 189.643,221.609 189.451 C 221.604 189.259,221.375 189.271,221.100 189.478 C 220.397 190.008,218.400 190.077,218.400 189.572 C 218.400 189.341,218.235 189.255,218.032 189.380 C 217.830 189.505,217.393 189.336,217.061 189.004 C 216.729 188.672,216.284 188.400,216.072 188.400 C 215.860 188.400,215.572 187.943,215.432 187.384 C 215.291 186.825,215.023 186.462,214.836 186.577 C 214.582 186.734,214.519 183.939,214.762 183.300 C 214.783 183.245,214.755 183.129,214.700 183.042 C 214.645 182.955,214.943 182.505,215.362 182.042 C 215.781 181.579,215.961 181.191,215.762 181.181 C 215.428 181.163,217.902 179.741,218.436 179.643 C 218.566 179.619,219.502 179.850,220.515 180.154 M238.915 180.154 C 239.929 180.459,240.832 180.635,240.922 180.545 C 241.201 180.266,242.021 181.470,242.206 182.430 C 242.302 182.931,242.528 183.444,242.708 183.571 C 243.154 183.884,243.284 186.099,242.840 185.825 C 242.549 185.645,241.971 186.931,241.833 188.067 C 241.815 188.213,241.636 188.483,241.436 188.667 C 241.222 188.863,241.195 188.753,241.371 188.400 C 241.535 188.070,241.298 188.250,240.844 188.800 C 240.389 189.350,240.014 189.643,240.009 189.451 C 240.004 189.259,239.775 189.271,239.500 189.478 C 238.797 190.008,236.800 190.077,236.800 189.572 C 236.800 189.341,236.635 189.255,236.432 189.380 C 236.230 189.505,235.793 189.336,235.461 189.004 C 235.129 188.672,234.684 188.400,234.472 188.400 C 234.260 188.400,233.972 187.943,233.832 187.384 C 233.691 186.825,233.423 186.462,233.236 186.577 C 232.982 186.734,232.919 183.939,233.162 183.300 C 233.183 183.245,233.155 183.129,233.100 183.042 C 233.045 182.955,233.343 182.505,233.762 182.042 C 234.181 181.579,234.361 181.191,234.162 181.181 C 233.828 181.163,236.302 179.741,236.836 179.643 C 236.966 179.619,237.902 179.850,238.915 180.154 M278.515 180.154 C 279.529 180.459,280.432 180.635,280.522 180.545 C 280.801 180.266,281.621 181.470,281.806 182.430 C 281.902 182.931,282.128 183.444,282.308 183.571 C 282.754 183.884,282.884 186.099,282.440 185.825 C 282.149 185.645,281.571 186.931,281.433 188.067 C 281.415 188.213,281.236 188.483,281.036 188.667 C 280.822 188.863,280.795 188.753,280.971 188.400 C 281.135 188.070,280.898 188.250,280.444 188.800 C 279.989 189.350,279.614 189.643,279.609 189.451 C 279.604 189.259,279.375 189.271,279.100 189.478 C 278.397 190.008,276.400 190.077,276.400 189.572 C 276.400 189.341,276.235 189.255,276.032 189.380 C 275.830 189.505,275.393 189.336,275.061 189.004 C 274.729 188.672,274.284 188.400,274.072 188.400 C 273.860 188.400,273.572 187.943,273.432 187.384 C 273.291 186.825,273.023 186.462,272.836 186.577 C 272.582 186.734,272.519 183.939,272.762 183.300 C 272.783 183.245,272.755 183.129,272.700 183.042 C 272.645 182.955,272.943 182.505,273.362 182.042 C 273.781 181.579,273.961 181.191,273.762 181.181 C 273.428 181.163,275.902 179.741,276.436 179.643 C 276.566 179.619,277.502 179.850,278.515 180.154 M339.315 180.154 C 340.329 180.459,341.232 180.635,341.322 180.545 C 341.601 180.266,342.421 181.470,342.606 182.430 C 342.702 182.931,342.928 183.444,343.108 183.571 C 343.554 183.884,343.684 186.099,343.240 185.825 C 342.949 185.645,342.371 186.931,342.233 188.067 C 342.215 188.213,342.036 188.483,341.836 188.667 C 341.622 188.863,341.595 188.753,341.771 188.400 C 341.935 188.070,341.698 188.250,341.244 188.800 C 340.789 189.350,340.414 189.643,340.409 189.451 C 340.404 189.259,340.175 189.271,339.900 189.478 C 339.197 190.008,337.200 190.077,337.200 189.572 C 337.200 189.341,337.035 189.255,336.832 189.380 C 336.630 189.505,336.193 189.336,335.861 189.004 C 335.529 188.672,335.084 188.400,334.872 188.400 C 334.660 188.400,334.372 187.943,334.232 187.384 C 334.091 186.825,333.823 186.462,333.636 186.577 C 333.382 186.734,333.319 183.939,333.562 183.300 C 333.583 183.245,333.555 183.129,333.500 183.042 C 333.445 182.955,333.743 182.505,334.162 182.042 C 334.581 181.579,334.761 181.191,334.562 181.181 C 334.228 181.163,336.702 179.741,337.236 179.643 C 337.366 179.619,338.302 179.850,339.315 180.154 M119.826 204.611 C 119.119 205.146,119.102 205.299,119.626 206.400 L 120.200 207.605 199.900 207.702 C 243.735 207.756,279.600 207.665,279.600 207.500 C 279.600 207.335,279.801 207.245,280.047 207.300 C 280.644 207.434,280.830 206.132,280.383 204.956 L 280.023 204.008 200.311 204.017 C 131.024 204.025,120.499 204.103,119.826 204.611 " stroke="none" fill="#04b484" fill-rule="evenodd"></path><path id="path1" d="M307.600 170.024 C 307.128 170.361,307.196 170.397,307.919 170.193 C 308.459 170.041,309.105 170.154,309.484 170.467 C 310.031 170.918,310.100 170.908,309.934 170.400 C 309.691 169.657,308.404 169.450,307.600 170.024 M145.600 171.000 C 145.020 171.332,144.852 171.572,145.200 171.573 C 145.530 171.574,146.149 171.310,146.576 170.987 C 147.564 170.240,146.915 170.248,145.600 171.000 M155.600 170.743 C 155.600 171.154,156.812 171.722,157.092 171.442 C 157.189 171.344,156.893 171.064,156.434 170.818 C 155.975 170.573,155.600 170.539,155.600 170.743 M252.354 172.459 C 250.967 173.748,251.311 173.615,253.354 172.072 C 253.989 171.592,254.328 171.200,254.108 171.200 C 253.888 171.200,253.099 171.766,252.354 172.459 M59.962 172.329 C 60.205 172.784,60.601 173.277,60.842 173.426 C 61.156 173.620,61.154 173.462,60.838 172.871 C 60.595 172.416,60.199 171.923,59.958 171.774 C 59.644 171.580,59.646 171.738,59.962 172.329 M157.600 171.755 C 157.600 171.908,157.960 172.420,158.400 172.892 C 158.840 173.364,159.200 173.565,159.200 173.337 C 159.200 173.110,158.840 172.598,158.400 172.200 C 157.960 171.802,157.600 171.601,157.600 171.755 M306.800 173.967 C 306.800 175.486,306.621 176.406,306.300 176.535 C 306.001 176.656,306.082 176.750,306.500 176.768 C 307.098 176.795,307.200 176.422,307.200 174.200 C 307.200 172.770,307.110 171.600,307.000 171.600 C 306.890 171.600,306.800 172.665,306.800 173.967 M310.128 174.000 C 310.128 175.430,310.201 176.015,310.289 175.300 C 310.378 174.585,310.378 173.415,310.289 172.700 C 310.201 171.985,310.128 172.570,310.128 174.000 M348.574 181.600 C 348.574 187.210,348.630 189.505,348.699 186.700 C 348.768 183.895,348.768 179.305,348.699 176.500 C 348.630 173.695,348.574 175.990,348.574 181.600 M256.700 173.076 C 256.315 173.176,256.000 173.432,256.000 173.643 C 256.000 173.880,256.269 173.890,256.700 173.668 C 257.085 173.470,257.670 173.208,258.000 173.086 C 258.775 172.798,257.791 172.791,256.700 173.076 M155.200 173.927 C 155.200 174.116,155.650 174.477,156.200 174.727 C 156.750 174.978,157.200 175.117,157.200 175.037 C 157.200 174.957,156.750 174.597,156.200 174.237 C 155.650 173.876,155.200 173.737,155.200 173.927 M264.344 174.377 C 264.864 174.830,265.494 175.197,265.744 175.194 C 266.222 175.187,265.557 174.658,264.200 173.964 C 263.571 173.642,263.602 173.731,264.344 174.377 M43.285 174.813 C 43.018 175.240,42.801 175.817,42.802 176.095 C 42.804 176.373,43.077 176.078,43.410 175.440 C 44.103 174.111,44.011 173.650,43.285 174.813 M98.000 174.786 C 98.000 174.998,98.405 175.384,98.900 175.644 C 99.795 176.114,99.796 176.112,99.038 175.258 C 98.191 174.305,98.000 174.218,98.000 174.786 M104.624 177.013 C 104.196 177.336,104.025 177.600,104.244 177.600 C 104.462 177.600,104.869 177.375,105.148 177.100 C 105.556 176.699,105.813 176.791,106.447 177.567 C 107.175 178.458,107.288 178.483,107.884 177.888 C 108.480 177.292,108.468 177.257,107.737 177.448 C 107.285 177.566,106.720 177.386,106.423 177.028 C 105.790 176.265,105.614 176.263,104.624 177.013 M181.558 177.247 C 182.283 177.922,182.561 177.991,182.933 177.588 C 183.261 177.233,183.265 177.158,182.945 177.337 C 182.695 177.477,182.268 177.323,181.996 176.996 C 181.724 176.668,181.310 176.400,181.076 176.400 C 180.841 176.400,181.058 176.781,181.558 177.247 M288.224 177.013 C 287.796 177.336,287.625 177.600,287.844 177.600 C 288.062 177.600,288.469 177.375,288.748 177.100 C 289.156 176.699,289.413 176.791,290.047 177.567 C 290.775 178.458,290.888 178.483,291.484 177.888 C 292.080 177.292,292.068 177.257,291.337 177.448 C 290.885 177.566,290.320 177.386,290.023 177.028 C 289.390 176.265,289.214 176.263,288.224 177.013 M132.000 177.102 C 132.000 177.279,132.540 177.628,133.200 177.878 C 133.860 178.127,134.400 178.261,134.400 178.176 C 134.400 178.090,133.860 177.741,133.200 177.400 C 132.540 177.059,132.000 176.925,132.000 177.102 M240.400 177.102 C 240.400 177.279,240.940 177.628,241.600 177.878 C 242.260 178.127,242.800 178.261,242.800 178.176 C 242.800 178.090,242.260 177.741,241.600 177.400 C 240.940 177.059,240.400 176.925,240.400 177.102 M280.000 177.102 C 280.000 177.279,280.540 177.628,281.200 177.878 C 281.860 178.127,282.400 178.261,282.400 178.176 C 282.400 178.090,281.860 177.741,281.200 177.400 C 280.540 177.059,280.000 176.925,280.000 177.102 M318.813 177.076 C 318.806 177.338,318.983 177.666,319.207 177.804 C 319.430 177.942,319.493 178.249,319.347 178.485 C 319.201 178.722,319.643 178.584,320.328 178.179 C 321.615 177.418,321.817 176.815,320.547 177.526 C 320.014 177.824,319.706 177.758,319.329 177.263 C 319.038 176.879,318.820 176.800,318.813 177.076 M340.800 177.102 C 340.800 177.279,341.340 177.628,342.000 177.878 C 342.660 178.127,343.200 178.261,343.200 178.176 C 343.200 178.090,342.660 177.741,342.000 177.400 C 341.340 177.059,340.800 176.925,340.800 177.102 M100.966 185.200 C 100.966 189.270,101.025 190.935,101.098 188.900 C 101.171 186.865,101.171 183.535,101.098 181.500 C 101.025 179.465,100.966 181.130,100.966 185.200 M205.365 185.000 C 205.366 188.960,205.426 190.526,205.498 188.480 C 205.571 186.434,205.571 183.194,205.498 181.280 C 205.424 179.366,205.365 181.040,205.365 185.000 M98.164 185.000 C 98.163 188.740,98.223 190.324,98.297 188.520 C 98.371 186.715,98.372 183.655,98.298 181.720 C 98.225 179.784,98.164 181.260,98.164 185.000 M208.563 184.800 C 208.563 188.430,208.623 189.915,208.698 188.100 C 208.772 186.285,208.772 183.315,208.698 181.500 C 208.623 179.685,208.563 181.170,208.563 184.800 M123.200 179.600 C 122.650 180.030,122.397 180.386,122.638 180.391 C 122.879 180.396,123.402 180.040,123.800 179.600 C 124.712 178.592,124.488 178.592,123.200 179.600 M213.200 179.600 C 212.650 180.030,212.397 180.386,212.638 180.391 C 212.879 180.396,213.402 180.040,213.800 179.600 C 214.712 178.592,214.488 178.592,213.200 179.600 M231.600 179.600 C 231.050 180.030,230.797 180.386,231.038 180.391 C 231.279 180.396,231.802 180.040,232.200 179.600 C 233.112 178.592,232.888 178.592,231.600 179.600 M271.200 179.600 C 270.650 180.030,270.397 180.386,270.638 180.391 C 270.879 180.396,271.402 180.040,271.800 179.600 C 272.712 178.592,272.488 178.592,271.200 179.600 M332.000 179.600 C 331.450 180.030,331.197 180.386,331.438 180.391 C 331.679 180.396,332.202 180.040,332.600 179.600 C 333.512 178.592,333.288 178.592,332.000 179.600 M44.554 180.177 C 44.432 180.494,44.403 181.079,44.489 181.477 C 44.587 181.928,44.724 181.712,44.854 180.900 C 45.071 179.538,44.930 179.196,44.554 180.177 M306.709 182.499 C 306.907 187.747,307.064 188.268,307.133 183.900 C 307.170 181.535,307.065 179.600,306.900 179.599 C 306.735 179.599,306.649 180.904,306.709 182.499 M310.170 180.133 C 310.058 180.427,310.027 182.182,310.101 184.033 L 310.237 187.400 310.319 183.728 C 310.395 180.268,310.452 180.046,311.300 179.882 L 312.200 179.709 311.287 179.654 C 310.786 179.625,310.283 179.840,310.170 180.133 M132.400 180.593 C 132.400 180.725,132.782 181.231,133.249 181.717 L 134.099 182.600 133.647 181.722 C 133.200 180.854,132.400 180.129,132.400 180.593 M222.400 180.593 C 222.400 180.725,222.782 181.231,223.249 181.717 L 224.099 182.600 223.647 181.722 C 223.200 180.854,222.400 180.129,222.400 180.593 M240.800 180.593 C 240.800 180.725,241.182 181.231,241.649 181.717 L 242.499 182.600 242.047 181.722 C 241.600 180.854,240.800 180.129,240.800 180.593 M280.400 180.593 C 280.400 180.725,280.782 181.231,281.249 181.717 L 282.099 182.600 281.647 181.722 C 281.200 180.854,280.400 180.129,280.400 180.593 M341.200 180.593 C 341.200 180.725,341.582 181.231,342.049 181.717 L 342.899 182.600 342.447 181.722 C 342.000 180.854,341.200 180.129,341.200 180.593 M164.869 181.639 C 164.128 182.824,164.457 182.913,165.319 181.761 C 165.714 181.232,165.892 180.800,165.715 180.800 C 165.538 180.800,165.157 181.178,164.869 181.639 M75.502 183.800 C 75.607 184.350,75.762 184.800,75.847 184.800 C 75.931 184.800,76.000 184.350,76.000 183.800 C 76.000 183.250,75.845 182.800,75.655 182.800 C 75.466 182.800,75.397 183.250,75.502 183.800 M182.398 187.282 C 182.289 189.856,182.341 191.821,182.514 191.647 C 182.687 191.474,182.776 189.367,182.712 186.966 L 182.596 182.600 182.398 187.282 M189.351 187.200 C 189.351 189.730,189.416 190.765,189.496 189.500 C 189.575 188.235,189.575 186.165,189.496 184.900 C 189.416 183.635,189.351 184.670,189.351 187.200 M163.787 184.040 C 163.641 184.502,163.673 185.033,163.860 185.219 C 164.047 185.405,164.238 185.027,164.284 184.379 C 164.382 182.999,164.165 182.851,163.787 184.040 M192.148 187.200 C 192.148 189.510,192.214 190.455,192.295 189.300 C 192.376 188.145,192.376 186.255,192.295 185.100 C 192.214 183.945,192.148 184.890,192.148 187.200 M202.150 187.400 C 202.151 189.820,202.216 190.758,202.296 189.485 C 202.376 188.212,202.375 186.232,202.294 185.085 C 202.214 183.938,202.149 184.980,202.150 187.400 M285.301 184.600 C 285.305 185.480,285.387 185.793,285.483 185.295 C 285.579 184.798,285.575 184.078,285.475 183.695 C 285.375 183.313,285.296 183.720,285.301 184.600 M346.101 184.600 C 346.105 185.480,346.187 185.793,346.283 185.295 C 346.379 184.798,346.375 184.078,346.275 183.695 C 346.175 183.313,346.096 183.720,346.101 184.600 M84.789 187.579 C 85.249 188.439,86.745 189.601,87.389 189.599 C 87.615 189.598,87.215 189.240,86.500 188.804 C 85.785 188.368,85.200 187.739,85.200 187.406 C 85.200 187.073,85.014 186.800,84.786 186.800 C 84.502 186.800,84.503 187.044,84.789 187.579 M226.341 188.233 C 225.958 189.049,225.867 189.578,226.123 189.492 C 226.637 189.321,227.748 186.794,227.301 186.813 C 227.136 186.820,226.703 187.459,226.341 188.233 M284.341 188.233 C 283.958 189.049,283.867 189.578,284.123 189.492 C 284.637 189.321,285.748 186.794,285.301 186.813 C 285.136 186.820,284.703 187.459,284.341 188.233 M345.141 188.233 C 344.758 189.049,344.667 189.578,344.923 189.492 C 345.437 189.321,346.548 186.794,346.101 186.813 C 345.936 186.820,345.503 187.459,345.141 188.233 M73.800 188.400 C 73.168 189.060,72.766 189.600,72.907 189.600 C 73.197 189.600,75.200 187.662,75.200 187.382 C 75.200 187.023,74.933 187.218,73.800 188.400 M310.000 188.018 C 310.000 188.516,311.609 190.124,311.858 189.876 C 311.963 189.771,311.588 189.224,311.024 188.661 C 310.461 188.097,310.000 187.808,310.000 188.018 M74.000 191.833 C 73.442 192.143,73.265 192.385,73.600 192.381 C 73.930 192.378,74.549 192.110,74.976 191.787 C 75.939 191.059,75.345 191.087,74.000 191.833 M137.200 191.706 C 137.200 192.057,136.795 192.422,136.300 192.518 L 135.400 192.691 136.313 192.746 C 137.192 192.798,137.962 191.829,137.449 191.316 C 137.312 191.179,137.200 191.354,137.200 191.706 M145.600 191.453 C 145.600 191.723,148.455 192.878,148.648 192.686 C 148.736 192.597,148.087 192.241,147.204 191.895 C 146.322 191.548,145.600 191.349,145.600 191.453 M245.600 191.706 C 245.600 192.057,245.195 192.422,244.700 192.518 L 243.800 192.691 244.713 192.746 C 245.592 192.798,246.362 191.829,245.849 191.316 C 245.712 191.179,245.600 191.354,245.600 191.706 M255.200 191.987 C 255.200 192.303,257.612 192.921,257.864 192.670 C 257.938 192.595,257.369 192.341,256.600 192.104 C 255.830 191.868,255.200 191.816,255.200 191.987 M50.500 192.676 C 50.885 192.776,51.515 192.776,51.900 192.676 C 52.285 192.575,51.970 192.493,51.200 192.493 C 50.430 192.493,50.115 192.575,50.500 192.676 M160.332 207.900 C 182.184 207.957,217.824 207.957,239.532 207.900 C 261.239 207.843,243.360 207.796,199.800 207.796 C 156.240 207.796,138.479 207.843,160.332 207.900 " stroke="none" fill="#04ac84" fill-rule="evenodd"></path></g></svg>