<svg id="svg" version="1.1" xmlns="http://www.w3.org/2000/svg" xmlns:xlink="http://www.w3.org/1999/xlink" width="400" height="400" viewBox="0, 0, 400,400"><g id="svgg"><path id="path0" d="M147.727 129.483 C 147.880 129.729,147.577 129.808,146.945 129.687 C 146.325 129.569,145.761 129.711,145.527 130.045 C 145.228 130.473,145.093 130.485,144.936 130.101 C 144.745 129.628,143.545 129.708,142.000 130.295 C 141.368 130.535,140.924 130.639,140.100 130.739 C 139.825 130.773,139.600 131.070,139.600 131.400 C 139.600 132.121,138.536 132.207,138.302 131.505 C 138.197 131.191,137.762 131.416,137.107 132.122 C 136.541 132.733,136.013 133.039,135.934 132.803 C 135.845 132.534,135.493 132.615,134.995 133.019 C 134.302 133.582,134.293 133.636,134.921 133.437 C 135.369 133.295,135.543 133.369,135.380 133.632 C 135.237 133.864,134.846 133.950,134.512 133.821 C 134.165 133.688,133.594 133.946,133.182 134.420 C 132.785 134.878,132.312 135.286,132.130 135.326 C 131.949 135.367,131.845 135.535,131.900 135.700 C 131.955 135.865,131.719 136.000,131.376 136.000 C 131.007 136.000,130.869 136.188,131.038 136.462 C 131.212 136.743,131.148 136.815,130.876 136.647 C 130.349 136.321,128.886 137.658,129.092 138.277 C 129.171 138.512,128.777 138.819,128.217 138.960 C 127.658 139.100,127.200 139.471,127.200 139.784 C 127.200 140.097,126.992 140.481,126.738 140.638 C 126.433 140.827,126.386 140.746,126.600 140.400 C 126.818 140.047,126.768 139.973,126.446 140.172 C 126.169 140.343,126.078 140.816,126.230 141.294 C 126.432 141.930,126.351 142.067,125.879 141.886 C 125.531 141.752,125.168 141.908,125.038 142.246 C 124.892 142.626,124.975 142.739,125.266 142.559 C 125.548 142.385,125.614 142.454,125.438 142.738 C 125.281 142.992,124.874 143.200,124.534 143.200 C 124.138 143.200,124.001 143.424,124.153 143.821 C 124.289 144.177,124.222 144.337,123.995 144.197 C 123.518 143.902,122.683 145.918,122.971 146.669 C 123.083 146.962,122.911 147.200,122.587 147.200 C 122.076 147.200,121.801 147.937,121.953 148.900 C 121.979 149.065,121.775 149.203,121.500 149.206 C 121.167 149.210,121.200 149.342,121.600 149.600 C 122.036 149.882,122.057 149.989,121.676 149.994 C 121.388 149.997,121.264 150.180,121.400 150.400 C 121.536 150.620,121.436 150.800,121.177 150.800 C 120.904 150.800,120.794 151.135,120.916 151.601 C 121.047 152.100,120.967 152.303,120.704 152.141 C 120.428 151.970,120.373 152.237,120.543 152.916 C 120.695 153.520,120.618 154.065,120.359 154.225 C 120.048 154.418,120.078 154.603,120.457 154.844 C 120.756 155.033,120.813 155.191,120.584 155.194 C 120.034 155.202,119.937 161.536,120.473 162.536 C 120.784 163.117,120.761 163.223,120.378 162.986 C 120.020 162.765,119.977 162.837,120.228 163.238 C 120.422 163.547,120.525 164.135,120.457 164.544 C 120.381 165.009,120.502 165.184,120.781 165.012 C 121.074 164.831,121.174 165.057,121.073 165.668 C 120.865 166.924,121.535 169.287,122.015 168.991 C 122.227 168.860,122.400 169.123,122.400 169.576 C 122.400 170.795,122.461 170.950,123.160 171.530 C 123.665 171.948,123.673 172.005,123.200 171.800 C 122.719 171.592,122.726 171.646,123.235 172.070 C 123.584 172.362,123.786 172.850,123.683 173.156 C 123.558 173.526,123.667 173.606,124.010 173.394 C 124.347 173.186,124.425 173.235,124.238 173.539 C 124.073 173.806,124.490 174.493,125.223 175.162 C 125.922 175.801,126.373 176.521,126.224 176.762 C 126.075 177.003,126.195 177.200,126.490 177.200 C 126.786 177.200,127.348 177.743,127.741 178.407 C 128.133 179.071,128.622 179.510,128.827 179.383 C 129.032 179.257,129.200 179.463,129.200 179.843 C 129.200 180.223,129.318 180.415,129.463 180.270 C 129.773 179.960,130.863 180.773,130.637 181.145 C 130.552 181.285,130.944 181.746,131.507 182.168 C 132.159 182.657,132.424 182.730,132.236 182.368 C 132.074 182.056,132.197 182.112,132.510 182.494 C 132.823 182.875,133.196 183.070,133.340 182.927 C 133.483 182.784,133.600 182.961,133.600 183.321 C 133.600 183.738,133.817 183.891,134.200 183.745 C 134.585 183.597,134.800 183.753,134.800 184.181 C 134.800 184.547,134.980 184.736,135.200 184.600 C 135.420 184.464,135.600 184.524,135.600 184.734 C 135.600 184.943,135.879 185.222,136.221 185.353 C 136.562 185.484,136.741 185.428,136.618 185.229 C 136.495 185.030,136.925 185.067,137.572 185.312 C 138.220 185.557,138.661 185.901,138.552 186.078 C 138.354 186.398,138.765 186.512,140.100 186.507 C 140.485 186.505,140.800 186.673,140.800 186.879 C 140.800 187.085,141.160 187.140,141.600 187.000 C 142.040 186.860,142.400 186.902,142.400 187.093 C 142.400 187.521,143.325 187.603,149.400 187.713 C 154.339 187.803,158.148 187.363,157.768 186.749 C 157.565 186.419,158.756 186.217,159.940 186.379 C 160.237 186.420,160.373 186.280,160.242 186.069 C 159.947 185.591,161.117 185.102,161.698 185.461 C 161.949 185.616,162.006 185.534,161.838 185.262 C 161.585 184.853,162.318 184.598,163.300 184.753 C 163.465 184.779,163.600 184.609,163.600 184.376 C 163.600 184.143,163.761 184.052,163.958 184.174 C 164.155 184.296,164.419 184.126,164.546 183.798 C 164.672 183.469,164.971 183.200,165.211 183.200 C 166.151 183.200,168.849 180.630,168.662 179.914 C 168.559 179.521,168.638 179.200,168.837 179.200 C 169.037 179.200,169.200 178.919,169.200 178.576 C 169.200 178.233,169.022 178.063,168.805 178.197 C 168.575 178.339,168.513 178.172,168.656 177.798 C 168.872 177.236,167.459 175.400,166.809 175.400 C 166.694 175.400,166.632 175.305,166.670 175.190 C 166.709 175.074,165.989 174.949,165.070 174.911 C 163.268 174.838,161.400 175.752,161.853 176.486 C 162.035 176.780,161.901 176.848,161.466 176.681 C 161.100 176.540,160.800 176.610,160.800 176.836 C 160.800 177.062,160.632 177.144,160.427 177.017 C 160.222 176.890,159.817 177.121,159.527 177.530 C 159.237 177.939,158.550 178.492,158.000 178.759 C 157.058 179.216,157.045 179.208,157.776 178.622 C 158.699 177.883,158.421 177.825,157.019 178.464 C 156.458 178.720,156.000 179.090,156.000 179.288 C 156.000 179.485,155.835 179.545,155.634 179.421 C 155.433 179.297,155.177 179.421,155.066 179.698 C 154.915 180.072,154.855 180.060,154.832 179.651 C 154.805 179.186,154.699 179.186,154.139 179.651 C 153.775 179.953,153.415 180.155,153.339 180.100 C 153.262 180.045,153.065 180.024,152.900 180.054 C 151.948 180.223,146.000 180.165,146.000 179.985 C 146.000 179.867,145.685 179.735,145.300 179.691 C 144.915 179.648,144.240 179.533,143.800 179.437 C 143.360 179.340,142.609 179.247,142.131 179.231 C 141.653 179.214,140.711 178.737,140.039 178.171 C 139.367 177.606,138.642 177.251,138.428 177.383 C 138.215 177.514,137.846 177.259,137.608 176.815 C 137.371 176.371,137.014 176.051,136.816 176.104 C 136.618 176.157,136.160 175.840,135.799 175.400 C 135.437 174.960,135.272 174.853,135.432 175.162 C 135.624 175.531,135.565 175.626,135.262 175.438 C 135.008 175.281,134.800 174.893,134.800 174.576 C 134.800 174.259,134.596 174.000,134.347 174.000 C 133.676 174.000,132.376 172.362,132.670 171.887 C 132.816 171.650,132.727 171.598,132.459 171.764 C 132.188 171.931,131.897 171.749,131.761 171.325 C 131.294 169.873,130.673 168.832,130.382 169.011 C 129.996 169.250,129.528 168.040,129.822 167.564 C 129.946 167.364,129.846 167.200,129.600 167.200 C 129.354 167.200,129.264 167.020,129.400 166.800 C 129.536 166.580,129.459 166.400,129.228 166.400 C 128.998 166.400,128.805 165.995,128.801 165.500 C 128.785 163.750,128.625 162.861,128.356 163.027 C 128.207 163.119,128.142 161.351,128.213 159.098 C 128.284 156.844,128.369 155.000,128.402 155.000 C 128.505 155.000,128.866 153.439,129.003 152.400 C 129.076 151.850,129.163 151.400,129.198 151.400 C 129.233 151.400,129.326 151.053,129.405 150.630 C 129.485 150.206,129.831 149.702,130.175 149.510 C 130.519 149.318,130.800 148.897,130.800 148.576 C 130.800 148.255,131.160 147.684,131.600 147.307 C 132.040 146.930,132.400 146.339,132.400 145.992 C 132.400 145.262,135.318 142.288,136.155 142.165 C 136.833 142.066,139.200 140.364,139.200 139.976 C 139.200 139.825,139.907 139.589,140.772 139.451 C 141.636 139.313,142.616 138.926,142.950 138.593 C 143.284 138.259,143.702 138.010,143.879 138.040 C 144.055 138.070,144.290 138.061,144.400 138.020 C 145.010 137.791,153.600 137.823,153.600 138.054 C 153.600 138.327,156.722 139.020,157.300 138.875 C 157.465 138.834,157.600 138.961,157.600 139.157 C 157.600 139.354,157.879 139.622,158.221 139.753 C 158.629 139.909,158.756 139.822,158.591 139.495 C 158.453 139.223,158.624 139.349,158.970 139.776 C 159.317 140.204,159.605 140.384,159.612 140.176 C 159.619 139.969,159.808 140.115,160.032 140.500 C 160.256 140.885,160.821 141.200,161.287 141.200 C 161.752 141.200,162.014 141.319,161.869 141.464 C 161.331 142.002,163.359 142.916,165.222 142.975 C 166.280 143.008,167.077 142.925,166.993 142.789 C 166.780 142.444,168.280 141.214,168.566 141.500 C 168.844 141.777,168.886 141.547,168.980 139.257 C 169.033 137.954,168.867 137.399,168.325 137.061 C 167.926 136.811,167.600 136.446,167.600 136.248 C 167.600 135.714,166.302 134.827,165.500 134.813 C 165.107 134.806,164.797 134.493,164.794 134.100 C 164.789 133.502,164.731 133.487,164.400 134.000 C 164.041 134.555,163.819 134.272,163.969 133.451 C 164.004 133.259,163.755 133.208,163.416 133.338 C 163.077 133.468,162.800 133.401,162.800 133.187 C 162.800 132.974,162.530 132.800,162.200 132.800 C 161.870 132.800,161.600 132.609,161.600 132.376 C 161.600 132.143,161.431 132.057,161.225 132.185 C 161.018 132.312,160.703 132.172,160.525 131.872 C 160.096 131.153,158.404 130.730,158.388 131.337 C 158.381 131.592,158.188 131.477,157.958 131.082 C 157.684 130.611,157.276 130.449,156.770 130.609 C 156.317 130.753,156.000 130.666,156.000 130.397 C 156.000 130.137,155.526 129.989,154.900 130.055 C 154.295 130.119,153.556 130.020,153.258 129.836 C 152.426 129.322,147.431 129.003,147.727 129.483 M201.200 129.565 C 201.200 129.766,200.641 129.842,199.957 129.734 C 199.274 129.627,198.807 129.687,198.919 129.869 C 199.032 130.051,198.465 130.209,197.660 130.220 C 196.854 130.230,195.837 130.393,195.398 130.581 C 194.959 130.769,194.285 130.884,193.900 130.836 C 193.468 130.783,193.188 131.027,193.168 131.475 C 193.150 131.895,193.052 131.990,192.935 131.700 C 192.661 131.022,191.912 131.071,190.976 131.830 C 190.549 132.176,190.470 132.321,190.800 132.153 C 191.317 131.889,191.324 131.941,190.851 132.523 C 190.257 133.256,189.798 133.451,190.200 132.800 C 190.580 132.185,190.054 132.319,188.371 133.265 C 187.525 133.740,186.943 134.308,187.078 134.526 C 187.214 134.746,187.122 134.799,186.872 134.645 C 186.624 134.491,186.107 134.734,185.722 135.183 C 185.337 135.632,184.898 136.000,184.745 136.000 C 184.228 136.000,181.600 138.783,181.600 139.331 C 181.600 140.020,180.225 141.292,179.868 140.934 C 179.720 140.787,179.600 141.057,179.600 141.533 C 179.600 142.010,179.420 142.400,179.200 142.400 C 178.980 142.400,178.800 142.700,178.800 143.067 C 178.800 143.433,178.681 143.614,178.535 143.469 C 178.262 143.195,176.740 145.249,176.274 146.521 C 176.091 147.018,176.163 147.164,176.505 146.991 C 176.777 146.853,176.730 146.979,176.400 147.270 C 176.070 147.562,175.738 148.250,175.662 148.800 C 175.586 149.350,175.496 149.976,175.462 150.190 C 175.428 150.405,175.188 150.810,174.930 151.089 C 174.671 151.369,174.519 152.228,174.590 152.999 C 174.662 153.769,174.548 154.400,174.337 154.400 C 174.125 154.400,174.056 154.568,174.183 154.772 C 174.309 154.977,174.242 155.251,174.032 155.380 C 173.822 155.510,173.677 155.960,173.708 156.380 C 173.740 156.801,173.909 157.056,174.083 156.949 C 174.257 156.841,174.400 157.033,174.400 157.376 C 174.400 157.719,174.175 158.003,173.900 158.006 C 173.568 158.010,173.601 158.140,174.000 158.394 C 174.463 158.689,174.500 158.938,174.159 159.488 C 173.791 160.083,173.712 161.630,174.011 162.400 C 174.054 162.510,174.058 162.988,174.021 163.462 C 173.983 163.936,174.136 164.437,174.359 164.575 C 174.582 164.713,174.652 165.119,174.515 165.478 C 174.333 165.950,174.411 166.040,174.795 165.803 C 175.200 165.553,175.267 165.700,175.078 166.423 C 174.918 167.037,175.072 167.647,175.515 168.154 C 175.892 168.585,175.975 168.806,175.700 168.645 C 174.878 168.165,175.134 168.966,176.054 169.754 C 176.704 170.310,176.786 170.562,176.396 170.802 C 176.009 171.042,176.123 171.359,176.862 172.098 C 177.400 172.637,177.763 173.310,177.669 173.594 C 177.567 173.899,177.682 173.997,177.948 173.832 C 178.230 173.658,178.400 173.872,178.400 174.400 C 178.400 174.866,178.578 175.137,178.795 175.003 C 179.022 174.863,179.089 175.023,178.953 175.379 C 178.800 175.778,178.939 176.000,179.343 176.000 C 179.962 176.000,181.125 177.594,180.514 177.606 C 180.341 177.609,180.650 177.839,181.200 178.118 C 181.750 178.396,182.208 178.888,182.218 179.212 C 182.228 179.535,182.469 179.750,182.753 179.689 C 183.037 179.627,183.364 179.942,183.481 180.389 C 183.598 180.835,183.877 181.200,184.103 181.200 C 184.328 181.200,184.770 181.515,185.086 181.900 C 185.431 182.321,185.542 182.361,185.365 182.000 C 185.080 181.419,186.819 182.781,187.918 184.000 C 188.216 184.330,188.347 184.377,188.209 184.105 C 188.044 183.779,188.170 183.691,188.577 183.846 C 188.917 183.977,189.096 184.245,188.974 184.442 C 188.776 184.762,189.358 184.953,189.758 184.700 C 189.845 184.645,190.326 184.960,190.827 185.400 C 191.328 185.840,191.607 185.977,191.448 185.705 C 191.253 185.370,191.360 185.286,191.777 185.446 C 192.117 185.577,192.278 185.873,192.135 186.105 C 191.970 186.372,192.190 186.444,192.738 186.300 C 193.297 186.154,193.507 186.227,193.335 186.505 C 193.162 186.786,193.325 186.838,193.802 186.654 C 194.206 186.500,194.647 186.553,194.783 186.772 C 195.291 187.595,208.000 188.254,208.000 187.457 C 208.000 187.269,208.286 187.224,208.636 187.359 C 208.986 187.493,209.478 187.476,209.729 187.320 C 209.980 187.165,210.459 186.997,210.793 186.946 C 212.214 186.731,212.759 186.532,213.436 185.982 C 214.067 185.470,214.117 185.472,213.847 186.000 C 213.679 186.330,213.812 186.267,214.144 185.860 C 214.475 185.453,214.920 185.227,215.131 185.358 C 215.343 185.488,215.618 185.329,215.743 185.004 C 215.883 184.639,216.229 184.513,216.650 184.675 C 217.083 184.841,217.234 184.779,217.066 184.507 C 216.913 184.260,217.330 183.893,218.051 183.642 C 218.738 183.403,219.628 182.829,220.029 182.367 C 220.430 181.905,220.952 181.646,221.189 181.793 C 221.426 181.940,221.594 181.911,221.563 181.730 C 221.425 180.938,221.630 180.371,221.976 180.585 C 222.182 180.713,222.332 180.498,222.307 180.109 C 222.283 179.719,222.403 178.972,222.574 178.450 C 222.788 177.798,222.748 177.585,222.447 177.771 C 222.173 177.940,222.098 177.810,222.247 177.421 C 222.379 177.078,222.276 176.800,222.019 176.800 C 221.759 176.800,221.680 176.579,221.841 176.300 C 221.999 176.025,221.979 175.935,221.797 176.101 C 221.614 176.266,221.139 176.106,220.740 175.745 C 219.795 174.891,216.221 174.557,216.526 175.352 C 216.656 175.691,216.481 175.881,216.068 175.850 C 215.696 175.822,215.451 176.043,215.516 176.349 C 215.590 176.698,215.409 176.812,215.016 176.662 C 214.637 176.516,214.400 176.647,214.400 177.000 C 214.400 177.345,214.162 177.483,213.803 177.346 C 213.463 177.215,213.101 177.392,212.961 177.756 C 212.827 178.108,212.566 178.302,212.382 178.189 C 212.198 178.075,211.817 178.229,211.536 178.531 C 211.254 178.832,210.675 178.988,210.249 178.876 C 209.681 178.728,209.562 178.815,209.803 179.205 C 210.040 179.589,209.950 179.667,209.478 179.485 C 209.119 179.348,208.717 179.410,208.585 179.624 C 208.453 179.838,208.177 179.909,207.972 179.783 C 207.768 179.656,207.375 179.694,207.100 179.866 C 206.455 180.270,199.145 180.412,199.390 180.016 C 199.492 179.851,199.131 179.801,198.588 179.904 C 197.973 180.022,197.600 179.909,197.600 179.604 C 197.600 179.335,197.352 179.210,197.049 179.326 C 196.746 179.442,196.296 179.336,196.049 179.089 C 195.802 178.842,195.600 178.794,195.600 178.982 C 195.600 179.170,195.240 178.998,194.800 178.600 C 194.360 178.202,194.000 178.015,194.000 178.185 C 194.000 178.356,193.325 177.986,192.500 177.365 C 191.569 176.663,191.228 176.525,191.600 177.002 C 192.098 177.639,191.979 177.614,190.895 176.854 C 190.178 176.351,189.693 175.773,189.819 175.569 C 189.944 175.366,189.883 175.200,189.682 175.200 C 189.161 175.200,187.382 173.487,186.828 172.453 C 186.571 171.971,186.225 171.661,186.060 171.763 C 185.895 171.865,185.531 171.581,185.251 171.132 C 184.970 170.683,184.931 170.434,185.163 170.577 C 185.395 170.720,185.278 170.303,184.903 169.650 C 184.528 168.997,184.095 168.541,183.940 168.637 C 183.576 168.862,183.016 167.210,183.148 166.300 C 183.204 165.915,183.048 165.600,182.802 165.600 C 182.555 165.600,182.469 165.412,182.611 165.182 C 182.753 164.953,182.698 164.548,182.489 164.282 C 182.039 163.711,181.980 163.155,181.947 159.200 C 181.918 155.681,182.241 153.273,182.840 152.551 C 183.076 152.267,183.153 151.847,183.011 151.618 C 182.869 151.388,182.954 151.200,183.200 151.200 C 183.446 151.200,183.536 151.020,183.400 150.800 C 183.264 150.580,183.358 150.400,183.610 150.400 C 183.861 150.400,183.991 150.175,183.898 149.900 C 183.806 149.625,184.016 149.162,184.365 148.870 C 184.874 148.446,184.881 148.392,184.400 148.600 C 184.070 148.743,184.149 148.576,184.576 148.230 C 185.004 147.883,185.188 147.600,184.987 147.600 C 184.786 147.600,185.022 147.320,185.511 146.977 C 186.000 146.635,186.400 145.994,186.400 145.554 C 186.400 145.113,186.560 144.851,186.755 144.972 C 187.230 145.266,188.073 144.215,187.697 143.799 C 187.533 143.619,187.605 143.589,187.855 143.731 C 188.370 144.026,189.334 143.068,188.930 142.663 C 188.785 142.518,189.057 142.400,189.533 142.400 C 190.010 142.400,190.400 142.149,190.400 141.843 C 190.400 141.313,191.167 140.809,192.335 140.570 C 192.629 140.510,193.184 140.176,193.568 139.829 C 193.951 139.482,194.385 139.319,194.532 139.466 C 194.680 139.613,194.800 139.513,194.800 139.243 C 194.800 138.973,194.980 138.864,195.200 139.000 C 195.420 139.136,195.600 139.067,195.600 138.847 C 195.600 138.626,195.960 138.515,196.400 138.600 C 196.840 138.685,197.200 138.620,197.200 138.457 C 197.200 138.096,197.859 138.031,203.100 137.881 C 205.355 137.816,207.200 137.910,207.200 138.089 C 207.200 138.269,207.677 138.296,208.260 138.149 C 209.071 137.946,209.244 138.005,208.997 138.405 C 208.758 138.791,208.898 138.868,209.537 138.700 C 210.012 138.576,210.400 138.649,210.400 138.861 C 210.400 139.073,210.580 139.136,210.800 139.000 C 211.020 138.864,211.200 138.954,211.200 139.200 C 211.200 139.446,211.391 139.529,211.625 139.384 C 211.859 139.240,212.354 139.396,212.725 139.732 C 213.096 140.068,213.580 140.367,213.800 140.396 C 214.439 140.479,216.600 141.937,216.600 142.284 C 216.600 142.458,216.825 142.575,217.100 142.544 C 217.375 142.514,217.600 142.613,217.600 142.766 C 217.600 143.285,220.787 143.012,220.993 142.475 C 221.104 142.186,221.355 142.049,221.552 142.170 C 221.947 142.414,222.358 141.314,222.643 139.252 C 222.850 137.757,221.855 135.795,221.121 136.249 C 220.843 136.421,220.790 136.340,220.978 136.035 C 221.171 135.724,220.975 135.466,220.440 135.326 C 219.978 135.206,219.600 134.948,219.600 134.753 C 219.600 134.559,219.465 134.421,219.300 134.447 C 218.503 134.573,217.978 134.360,218.200 134.000 C 218.336 133.780,218.244 133.600,217.995 133.600 C 217.746 133.600,217.271 133.328,216.939 132.996 C 216.607 132.664,216.170 132.495,215.968 132.620 C 215.765 132.745,215.600 132.646,215.600 132.400 C 215.600 132.154,215.420 132.064,215.200 132.200 C 214.980 132.336,214.800 132.246,214.800 132.000 C 214.800 131.754,214.620 131.664,214.400 131.800 C 214.180 131.936,214.000 131.836,214.000 131.577 C 214.000 131.290,213.607 131.182,212.990 131.300 C 212.431 131.407,211.850 131.277,211.690 131.010 C 211.530 130.745,210.995 130.426,210.499 130.301 C 210.004 130.177,209.700 130.238,209.823 130.437 C 209.946 130.637,209.857 130.800,209.624 130.800 C 209.391 130.800,209.200 130.641,209.200 130.447 C 209.200 130.252,208.755 130.008,208.212 129.904 C 207.669 129.801,207.296 129.832,207.384 129.975 C 207.472 130.117,207.154 130.263,206.677 130.299 C 205.971 130.352,205.921 130.288,206.405 129.954 C 206.854 129.644,206.686 129.582,205.721 129.699 C 205.018 129.785,204.533 129.708,204.645 129.528 C 204.756 129.347,204.027 129.200,203.024 129.200 C 202.021 129.200,201.200 129.364,201.200 129.565 M255.533 129.570 C 255.460 129.774,254.878 130.070,254.240 130.229 C 253.414 130.434,253.162 130.385,253.364 130.058 C 253.541 129.772,253.347 129.600,252.847 129.600 C 252.407 129.600,251.951 129.756,251.833 129.946 C 251.715 130.137,251.120 130.224,250.510 130.141 C 249.545 130.009,249.505 130.041,250.200 130.385 C 250.826 130.695,250.690 130.733,249.574 130.560 C 248.560 130.403,247.999 130.520,247.629 130.965 C 247.343 131.309,246.939 131.486,246.731 131.357 C 246.182 131.018,244.013 132.002,244.114 132.543 C 244.161 132.794,243.930 133.000,243.600 133.000 C 243.270 133.000,242.671 133.329,242.269 133.731 C 241.867 134.133,241.289 134.366,240.984 134.249 C 240.679 134.132,240.108 134.443,239.715 134.939 C 239.322 135.436,238.645 135.978,238.211 136.143 C 237.550 136.395,237.517 136.503,238.011 136.815 C 238.485 137.115,238.438 137.189,237.770 137.194 C 236.860 137.201,235.029 138.896,235.463 139.330 C 235.612 139.478,235.455 139.600,235.116 139.600 C 234.776 139.600,234.251 139.905,233.949 140.277 C 233.476 140.860,233.483 140.906,234.000 140.611 C 234.330 140.423,234.105 140.740,233.500 141.315 C 232.895 141.891,232.400 142.651,232.400 143.005 C 232.400 143.373,232.211 143.530,231.957 143.374 C 231.659 143.189,231.603 143.378,231.784 143.950 C 231.983 144.578,231.885 144.800,231.407 144.800 C 230.667 144.800,229.431 147.403,229.849 148.079 C 230.026 148.366,229.939 148.410,229.603 148.202 C 229.205 147.956,229.146 148.130,229.350 148.943 C 229.527 149.650,229.463 149.971,229.158 149.903 C 228.906 149.846,228.609 150.050,228.498 150.356 C 228.387 150.661,228.474 150.802,228.690 150.668 C 228.925 150.523,229.008 150.822,228.896 151.407 C 228.793 151.948,228.534 152.283,228.320 152.150 C 228.103 152.017,227.966 152.329,228.010 152.855 C 228.053 153.375,228.047 153.890,227.995 154.000 C 227.698 154.639,227.802 162.284,228.114 162.695 C 228.320 162.967,228.372 163.657,228.229 164.228 C 228.031 165.015,228.093 165.192,228.484 164.957 C 228.865 164.728,228.856 164.824,228.451 165.323 C 228.147 165.698,228.086 166.000,228.314 166.000 C 228.540 166.000,228.636 166.405,228.528 166.900 C 228.364 167.648,228.410 167.699,228.800 167.200 C 229.190 166.701,229.236 166.752,229.072 167.501 C 228.963 167.996,229.038 168.300,229.237 168.177 C 229.570 167.971,229.754 168.646,229.707 169.900 C 229.697 170.175,229.868 170.400,230.087 170.400 C 230.306 170.400,230.384 170.665,230.260 170.989 C 230.135 171.313,230.352 171.808,230.741 172.089 C 231.569 172.687,232.388 173.887,231.661 173.438 C 231.407 173.281,231.577 173.792,232.038 174.575 C 232.506 175.367,233.069 175.881,233.307 175.734 C 233.574 175.569,233.643 175.711,233.489 176.112 C 233.313 176.570,233.985 177.358,235.821 178.847 C 238.244 180.813,239.043 181.623,237.900 180.955 C 237.625 180.794,237.743 181.053,238.162 181.531 C 238.581 182.009,239.256 182.400,239.662 182.400 C 240.068 182.400,240.400 182.664,240.400 182.987 C 240.400 183.371,240.631 183.486,241.066 183.319 C 241.493 183.155,241.634 183.221,241.460 183.503 C 241.211 183.905,242.826 184.733,243.128 184.359 C 243.199 184.271,243.428 184.508,243.639 184.883 C 243.851 185.262,244.284 185.466,244.611 185.341 C 244.935 185.216,245.200 185.324,245.200 185.581 C 245.200 185.837,245.380 185.936,245.600 185.800 C 245.820 185.664,246.000 185.738,246.000 185.964 C 246.000 186.190,246.300 186.260,246.666 186.119 C 247.150 185.934,247.242 186.009,247.003 186.395 C 246.757 186.793,246.891 186.870,247.538 186.700 C 248.086 186.557,248.306 186.628,248.141 186.896 C 247.969 187.174,248.251 187.224,248.974 187.042 C 249.771 186.842,249.987 186.897,249.771 187.247 C 249.563 187.583,249.732 187.659,250.337 187.501 C 250.811 187.377,251.276 187.399,251.369 187.550 C 251.633 187.977,263.633 187.788,263.934 187.352 C 264.080 187.140,264.726 186.928,265.370 186.882 C 266.013 186.835,266.857 186.510,267.245 186.160 C 267.632 185.809,268.141 185.640,268.375 185.784 C 268.609 185.929,268.800 185.857,268.800 185.624 C 268.800 185.391,268.935 185.221,269.100 185.247 C 269.838 185.364,270.393 185.150,271.043 184.500 C 271.428 184.115,271.891 183.778,272.071 183.750 C 272.252 183.723,272.580 183.678,272.800 183.650 C 273.020 183.623,273.155 183.383,273.100 183.118 C 273.045 182.853,273.225 182.606,273.500 182.568 C 273.775 182.531,274.180 182.478,274.400 182.450 C 274.620 182.423,274.800 182.136,274.800 181.814 C 274.800 181.492,275.118 181.058,275.506 180.850 C 276.478 180.330,276.403 177.015,275.399 176.070 C 275.008 175.701,274.821 175.638,274.986 175.930 C 275.230 176.365,275.138 176.368,274.468 175.949 C 274.019 175.669,273.741 175.295,273.850 175.119 C 273.959 174.942,273.363 174.862,272.524 174.941 C 270.332 175.146,269.864 175.314,269.273 176.107 C 268.983 176.495,268.578 176.710,268.373 176.583 C 268.168 176.456,268.000 176.644,268.000 177.000 C 268.000 177.356,267.819 177.535,267.597 177.398 C 267.376 177.261,267.085 177.434,266.952 177.782 C 266.818 178.130,266.504 178.390,266.254 178.360 C 265.146 178.227,264.373 178.432,264.600 178.800 C 264.736 179.020,264.522 179.214,264.124 179.231 C 263.726 179.247,263.040 179.350,262.600 179.459 C 262.160 179.568,261.481 179.656,261.091 179.653 C 260.702 179.650,260.473 179.794,260.583 179.972 C 260.693 180.150,259.122 180.222,257.092 180.132 C 251.419 179.880,251.240 179.859,251.491 179.453 C 251.624 179.237,251.361 179.169,250.877 179.296 C 250.393 179.422,249.830 179.278,249.566 178.959 C 249.311 178.651,248.837 178.400,248.513 178.400 C 248.189 178.400,247.368 178.005,246.690 177.521 C 246.011 177.038,245.589 176.858,245.751 177.121 C 246.213 177.868,245.830 177.696,244.268 176.454 C 243.475 175.824,242.940 175.194,243.079 175.054 C 243.219 174.914,243.055 174.800,242.716 174.800 C 242.376 174.800,241.851 174.485,241.549 174.100 C 241.042 173.454,241.062 173.444,241.800 173.973 C 242.305 174.335,242.231 174.167,241.600 173.520 C 241.050 172.956,240.420 172.518,240.200 172.547 C 239.980 172.576,239.792 172.240,239.781 171.800 C 239.771 171.360,239.582 171.033,239.361 171.073 C 239.140 171.114,238.730 170.780,238.450 170.332 C 238.169 169.881,238.133 169.635,238.370 169.782 C 239.094 170.229,238.850 169.695,237.825 168.589 C 237.288 168.010,236.948 167.281,237.068 166.968 C 237.187 166.656,237.126 166.400,236.930 166.400 C 236.734 166.400,236.535 165.923,236.487 165.340 C 236.439 164.758,236.246 164.083,236.058 163.840 C 235.870 163.598,235.707 162.815,235.695 162.100 C 235.683 161.385,235.636 160.755,235.591 160.700 C 235.269 160.308,235.314 158.144,235.653 157.737 C 235.882 157.460,235.984 156.596,235.879 155.817 C 235.770 155.006,235.860 154.400,236.091 154.400 C 236.312 154.400,236.408 153.955,236.304 153.412 C 236.201 152.869,236.270 152.519,236.458 152.636 C 236.646 152.752,236.800 152.387,236.800 151.824 C 236.800 151.261,236.974 150.800,237.187 150.800 C 237.401 150.800,237.460 150.500,237.319 150.134 C 237.133 149.648,237.208 149.558,237.600 149.800 C 237.986 150.039,238.068 149.954,237.893 149.499 C 237.749 149.124,237.902 148.770,238.267 148.630 C 238.606 148.500,238.782 148.131,238.659 147.809 C 238.536 147.488,238.635 147.102,238.879 146.951 C 239.164 146.775,239.219 146.878,239.032 147.238 C 238.872 147.547,239.018 147.458,239.358 147.041 C 239.697 146.624,239.880 146.129,239.764 145.941 C 239.648 145.753,239.823 145.600,240.153 145.600 C 240.483 145.600,240.881 145.392,241.038 145.138 C 241.232 144.825,241.143 144.785,240.762 145.015 C 240.283 145.303,240.281 145.253,240.749 144.677 C 241.051 144.305,241.518 144.000,241.787 144.000 C 242.056 144.000,242.619 143.609,243.038 143.131 C 243.457 142.653,243.547 142.411,243.238 142.593 C 242.856 142.818,242.769 142.774,242.966 142.455 C 243.125 142.198,243.400 142.077,243.577 142.186 C 243.754 142.295,244.381 141.938,244.970 141.393 C 245.559 140.847,246.283 140.400,246.578 140.400 C 246.873 140.400,247.225 140.111,247.361 139.758 C 247.496 139.406,247.853 139.212,248.155 139.327 C 248.456 139.443,248.904 139.336,249.151 139.089 C 249.398 138.842,249.600 138.788,249.600 138.969 C 249.600 139.150,249.898 139.051,250.261 138.749 C 250.986 138.147,251.751 138.044,256.800 137.874 C 258.738 137.808,260.448 137.940,260.777 138.179 C 261.232 138.511,261.279 138.474,261.000 138.000 C 260.695 137.482,260.739 137.475,261.323 137.949 C 261.695 138.251,262.000 138.364,262.000 138.200 C 262.000 138.036,262.243 138.104,262.540 138.351 C 262.838 138.597,263.558 138.839,264.140 138.887 C 264.723 138.935,265.200 139.145,265.200 139.354 C 265.200 139.563,265.322 139.612,265.470 139.463 C 265.619 139.314,266.159 139.586,266.670 140.066 C 267.182 140.546,267.600 140.805,267.600 140.641 C 267.600 140.477,267.885 140.627,268.232 140.975 C 268.580 141.323,269.034 141.502,269.242 141.374 C 269.450 141.246,269.570 141.371,269.510 141.652 C 269.449 141.933,269.632 142.172,269.915 142.182 C 270.198 142.192,270.560 142.411,270.719 142.669 C 271.185 143.424,274.247 143.063,275.076 142.156 C 275.474 141.719,275.620 141.641,275.400 141.981 C 275.050 142.523,275.088 142.531,275.709 142.044 C 276.145 141.701,276.327 141.201,276.182 140.744 C 276.052 140.335,276.138 140.000,276.373 140.000 C 276.608 140.000,276.800 139.539,276.800 138.976 C 276.800 138.396,276.627 138.060,276.400 138.200 C 276.180 138.336,275.978 138.167,275.950 137.824 C 275.850 136.580,275.796 136.402,275.545 136.500 C 275.405 136.555,274.955 136.232,274.545 135.781 C 274.135 135.331,273.980 135.225,274.200 135.545 C 274.546 136.050,274.482 136.055,273.726 135.584 C 273.245 135.285,272.917 134.935,272.996 134.807 C 273.160 134.541,270.982 132.989,269.834 132.554 C 269.304 132.353,269.157 132.406,269.355 132.727 C 269.545 133.035,269.422 133.107,268.987 132.940 C 268.519 132.760,268.469 132.605,268.809 132.394 C 269.346 132.062,268.905 131.730,268.000 131.784 C 267.670 131.804,267.162 131.546,266.870 131.210 C 266.416 130.687,266.384 130.686,266.647 131.200 C 266.899 131.694,266.846 131.713,266.345 131.308 C 266.011 131.037,265.391 130.762,264.969 130.696 C 264.546 130.631,263.975 130.436,263.700 130.265 C 263.396 130.075,263.198 130.158,263.194 130.476 C 263.190 130.823,263.088 130.855,262.894 130.571 C 262.481 129.967,261.200 129.545,261.200 130.013 C 261.200 130.226,260.795 130.387,260.300 130.372 C 259.466 130.346,259.457 130.321,260.181 130.038 C 260.843 129.779,260.759 129.692,259.631 129.466 C 257.729 129.086,255.689 129.138,255.533 129.570 M119.826 204.611 C 119.119 205.146,119.102 205.299,119.626 206.400 L 120.200 207.605 199.900 207.702 C 243.735 207.756,279.600 207.665,279.600 207.500 C 279.600 207.335,279.801 207.245,280.047 207.300 C 280.644 207.434,280.830 206.132,280.383 204.956 L 280.023 204.008 200.311 204.017 C 131.024 204.025,120.499 204.103,119.826 204.611 " stroke="none" fill="#04b484" fill-rule="evenodd"></path><path id="path1" d="M253.455 129.800 C 253.202 130.460,253.366 130.506,254.700 130.148 C 255.195 130.015,255.600 129.748,255.600 129.553 C 255.600 128.948,253.698 129.167,253.455 129.800 M138.900 131.065 C 138.204 131.346,138.273 132.000,139.000 132.000 C 139.330 132.000,139.600 131.730,139.600 131.400 C 139.600 131.070,139.555 130.814,139.500 130.832 C 139.445 130.849,139.175 130.954,138.900 131.065 M241.656 133.634 C 241.136 134.055,240.877 134.400,241.079 134.400 C 241.615 134.400,243.034 133.300,242.799 133.067 C 242.690 132.958,242.175 133.213,241.656 133.634 M128.026 138.569 C 127.639 139.035,127.702 139.098,128.377 138.922 C 128.830 138.804,129.200 138.548,129.200 138.353 C 129.200 137.814,128.554 137.932,128.026 138.569 M181.036 139.500 C 180.876 139.995,180.578 140.400,180.373 140.400 C 180.168 140.400,180.000 140.620,180.000 140.889 C 180.000 141.161,180.375 141.003,180.847 140.531 C 181.313 140.065,181.611 139.440,181.510 139.142 C 181.391 138.792,181.223 138.919,181.036 139.500 M213.603 140.296 C 213.605 140.619,216.027 142.107,216.226 141.908 C 216.290 141.843,215.726 141.386,214.971 140.892 C 214.217 140.397,213.601 140.129,213.603 140.296 M191.029 141.029 C 190.605 141.338,190.336 141.669,190.430 141.763 C 190.524 141.857,190.948 141.681,191.371 141.371 C 191.795 141.062,192.064 140.731,191.970 140.637 C 191.876 140.543,191.452 140.719,191.029 141.029 M167.430 142.052 C 167.007 142.463,166.849 142.800,167.081 142.800 C 167.543 142.800,168.609 141.665,168.357 141.442 C 168.271 141.366,167.854 141.640,167.430 142.052 M178.820 142.162 C 178.515 142.732,178.386 143.319,178.533 143.466 C 178.680 143.613,178.800 143.448,178.800 143.100 C 178.800 142.752,179.007 142.398,179.260 142.313 C 179.513 142.229,179.642 141.927,179.548 141.643 C 179.441 141.322,179.164 141.520,178.820 142.162 M134.075 143.724 C 133.154 144.662,132.400 145.554,132.400 145.705 C 132.400 145.855,133.223 145.156,134.228 144.151 C 135.234 143.145,135.987 142.254,135.903 142.170 C 135.819 142.086,134.996 142.785,134.075 143.724 M231.054 144.202 C 230.915 144.565,231.056 144.800,231.413 144.800 C 232.060 144.800,232.207 144.175,231.642 143.826 C 231.445 143.704,231.181 143.874,231.054 144.202 M175.479 148.300 C 174.967 149.213,174.827 150.800,175.259 150.800 C 175.520 150.800,175.630 150.696,175.503 150.570 C 175.377 150.443,175.424 149.813,175.609 149.170 C 175.923 148.072,175.857 147.626,175.479 148.300 M228.413 151.176 C 228.178 151.615,228.152 152.047,228.353 152.171 C 228.549 152.292,228.794 151.943,228.899 151.395 C 229.127 150.200,228.973 150.130,228.413 151.176 M173.754 156.400 C 173.749 157.280,173.880 158.000,174.045 158.000 C 174.210 158.000,174.317 157.280,174.282 156.400 C 174.247 155.520,174.116 154.800,173.991 154.800 C 173.866 154.800,173.759 155.520,173.754 156.400 M173.708 159.172 C 173.740 159.597,173.909 159.856,174.083 159.749 C 174.527 159.475,174.480 158.400,174.025 158.400 C 173.819 158.400,173.676 158.748,173.708 159.172 M128.006 162.033 C 128.009 162.565,128.189 163.270,128.406 163.600 C 128.682 164.022,128.723 163.785,128.542 162.800 C 128.225 161.075,127.998 160.749,128.006 162.033 M227.628 162.676 C 227.718 163.715,228.344 164.596,228.372 163.724 C 228.387 163.242,228.220 162.736,228.000 162.600 C 227.780 162.464,227.613 162.498,227.628 162.676 M183.274 167.802 C 183.525 168.353,183.807 168.726,183.901 168.632 C 184.184 168.349,183.575 166.800,183.182 166.800 C 182.981 166.800,183.023 167.251,183.274 167.802 M228.984 167.954 C 229.074 168.698,229.339 169.499,229.574 169.734 C 230.133 170.293,230.069 169.725,229.380 168.000 L 228.820 166.600 228.984 167.954 M131.606 171.033 C 131.614 171.497,133.958 174.178,134.166 173.961 C 134.251 173.872,133.708 173.095,132.960 172.233 C 132.212 171.372,131.603 170.832,131.606 171.033 M230.663 172.620 C 230.786 172.939,231.057 173.200,231.266 173.200 C 231.476 173.200,231.544 173.368,231.417 173.572 C 231.291 173.777,231.354 174.048,231.558 174.174 C 231.763 174.301,231.869 174.088,231.795 173.702 C 231.722 173.316,231.647 172.884,231.631 172.743 C 231.614 172.601,231.339 172.386,231.020 172.263 C 230.633 172.115,230.515 172.233,230.663 172.620 M124.400 174.537 C 124.400 174.659,124.850 175.244,125.400 175.838 C 125.950 176.431,126.397 176.756,126.393 176.558 C 126.386 176.176,124.400 174.163,124.400 174.537 M219.633 174.900 C 219.725 174.955,220.295 175.436,220.900 175.970 C 221.505 176.503,222.000 176.825,222.000 176.685 C 222.000 176.296,220.300 174.800,219.858 174.800 C 219.643 174.800,219.542 174.845,219.633 174.900 M244.200 176.400 C 245.031 177.060,245.813 177.600,245.940 177.600 C 246.309 177.600,243.436 175.234,243.045 175.216 C 242.850 175.207,243.369 175.740,244.200 176.400 M189.600 175.773 C 189.600 175.868,190.185 176.343,190.900 176.829 L 192.200 177.712 191.117 176.656 C 190.101 175.664,189.600 175.373,189.600 175.773 M158.162 178.221 L 157.000 179.243 158.078 178.767 C 158.671 178.506,159.250 178.046,159.365 177.746 C 159.657 176.987,159.493 177.052,158.162 178.221 M140.576 178.578 C 141.004 178.920,141.634 179.186,141.976 179.168 C 142.515 179.141,142.518 179.107,142.000 178.914 C 141.670 178.792,141.040 178.526,140.600 178.324 C 139.813 177.962,139.812 177.966,140.576 178.578 M181.200 178.600 C 181.474 178.930,181.878 179.200,182.098 179.200 C 182.321 179.200,182.278 178.935,182.000 178.600 C 181.726 178.270,181.322 178.000,181.102 178.000 C 180.879 178.000,180.922 178.265,181.200 178.600 M235.800 179.166 C 236.856 180.313,238.400 181.461,238.400 181.099 C 238.400 181.028,237.545 180.270,236.500 179.416 C 234.753 177.988,234.697 177.968,235.800 179.166 M198.400 180.000 C 199.768 180.438,200.819 180.438,199.800 180.000 C 199.360 179.811,198.640 179.662,198.200 179.668 C 197.557 179.677,197.596 179.743,198.400 180.000 M220.684 181.675 C 220.070 182.294,219.723 182.800,219.914 182.800 C 220.330 182.800,222.209 180.858,221.968 180.677 C 221.876 180.607,221.298 181.057,220.684 181.675 M185.448 182.182 C 185.682 182.791,187.143 183.812,187.382 183.532 C 187.444 183.460,186.979 182.982,186.349 182.471 C 185.539 181.814,185.275 181.730,185.448 182.182 M132.392 182.700 C 132.853 183.652,133.600 183.920,133.600 183.133 C 133.600 182.877,133.483 182.784,133.340 182.927 C 133.196 183.070,132.826 182.875,132.517 182.494 C 132.014 181.871,132.001 181.892,132.392 182.700 M161.400 185.178 C 160.520 185.595,159.913 185.950,160.051 185.968 C 160.440 186.018,163.200 184.814,163.200 184.595 C 163.200 184.327,163.199 184.327,161.400 185.178 M136.619 185.232 C 136.992 185.835,138.337 186.425,138.551 186.079 C 138.661 185.902,138.220 185.557,137.572 185.312 C 136.925 185.067,136.496 185.031,136.619 185.232 M160.332 207.900 C 182.184 207.957,217.824 207.957,239.532 207.900 C 261.239 207.843,243.360 207.796,199.800 207.796 C 156.240 207.796,138.479 207.843,160.332 207.900 " stroke="none" fill="#04ac84" fill-rule="evenodd"></path></g></svg>